<?xml version="1.0" encoding="utf-8"?>
<!-- Generator: Adobe Illustrator 24.1.3, SVG Export Plug-In . SVG Version: 6.00 Build 0)  -->
<svg version="1.1" id="Layer_1" xmlns="http://www.w3.org/2000/svg" xmlns:xlink="http://www.w3.org/1999/xlink" x="0px" y="0px"
	 viewBox="0 0 22 26" style="enable-background:new 0 0 22 26;" xml:space="preserve">
<g>
	<path d="M4.4,9.6h7.9c0.2,0,0.4-0.2,0.4-0.4V8.6c0-0.2-0.2-0.4-0.4-0.4H4.4C4.1,8.2,4,8.3,4,8.6v0.7C4,9.4,4.1,9.6,4.4,9.6z"/>
	<path d="M4.4,13.2h7.9c0.2,0,0.4-0.2,0.4-0.4v-0.7c0-0.2-0.2-0.4-0.4-0.4H4.4C4.1,11.8,4,12,4,12.2v0.7C4,13.1,4.1,13.2,4.4,13.2z"
		/>
	<path d="M4.4,16.8h4.1c0.2,0,0.4-0.2,0.4-0.4v-0.7c0-0.2-0.2-0.4-0.4-0.4H4.4c-0.2,0-0.4,0.2-0.4,0.4v0.7C4,16.7,4.1,16.8,4.4,16.8
		z"/>
	<path d="M4.5,5.6H12c0.3,0,0.5-0.2,0.5-0.5V2.9c0-0.3-0.2-0.5-0.5-0.5h-1.2C10.8,1.1,9.7,0,8.3,0S5.8,1.1,5.8,2.4H4.5
		C4.2,2.4,4,2.7,4,2.9V5C4,5.3,4.2,5.6,4.5,5.6z M8.3,1.5c0.5,0,1,0.4,1,1s-0.4,1-1,1s-1-0.4-1-1S7.7,1.5,8.3,1.5z"/>
	<path d="M16.6,14.5V5c0-0.7-0.6-1.3-1.3-1.3h-1.6v1.4h1.6v9.3c-3,0.1-5.4,2.6-5.5,5.6H1.4V5.1h1.5V3.7H1.3C0.6,3.7,0,4.3,0,5V20
		c0,0.7,0.6,1.3,1.3,1.3h8.4c0.5,2.7,2.9,4.7,5.7,4.7c3.2,0,5.8-2.6,5.8-5.8C21.3,17.4,19.3,15,16.6,14.5z M15.5,24.6
		c-2.4,0-4.4-2-4.4-4.4c0-2.5,2-4.4,4.4-4.4s4.4,2,4.4,4.4C19.9,22.7,17.9,24.6,15.5,24.6z"/>
	<path d="M17.4,19.5h-1.2v-1.6c0-0.4-0.3-0.7-0.7-0.7c-0.4,0-0.7,0.3-0.7,0.7v2.3c0,0.4,0.3,0.7,0.7,0.7h1.8c0.4,0,0.7-0.3,0.7-0.7
		C18,19.8,17.7,19.5,17.4,19.5z"/>
</g>
</svg>
