<?xml version="1.0" encoding="utf-8"?>
<!-- Generator: Adobe Illustrator 24.1.3, SVG Export Plug-In . SVG Version: 6.00 Build 0)  -->
<svg version="1.1" id="Layer_1" xmlns="http://www.w3.org/2000/svg" xmlns:xlink="http://www.w3.org/1999/xlink" x="0px" y="0px"
	 viewBox="0 0 28 20" style="enable-background:new 0 0 28 20;" xml:space="preserve">
<path d="M25,11.9c1.5-1.2,2.3-2.8,2.3-4.4c0-3.7-4.2-6.6-9.2-6.6c-3.4,0-6.5,1.4-8,3.4c-0.2,0-0.3,0-0.5,0c-5.1,0-9.2,2.9-9.2,6.6
	c0,1.6,0.8,3.2,2.3,4.4c-0.3,0.6-0.6,1.3-1.1,1.9c-0.3,0.5-0.3,1,0,1.5c0.2,0.3,0.6,0.5,1,0.5c0.1,0,0.2,0,0.3-0.1
	c1.7-0.5,3.2-1.2,4.2-1.9c0.8,0.1,1.6,0.2,2.4,0.2c3.4,0,6.5-1.4,8-3.4c0.2,0,0.3,0,0.5,0c0.8,0,1.6-0.1,2.4-0.2
	c1.1,0.6,2.6,1.4,4.2,1.9c0.1,0,0.2,0.1,0.3,0.1c0.4,0,0.8-0.2,1-0.5c0.3-0.5,0.3-1,0-1.4C25.6,13.2,25.3,12.5,25,11.9z M9.6,16.2
	c-0.8,0-1.6-0.1-2.4-0.3c-0.2,0-0.3,0-0.5,0.1c-0.8,0.5-2.3,1.4-4,1.8c0.6-0.9,1.1-2,1.3-2.6c0.1-0.3,0-0.6-0.2-0.8
	c-1.4-1-2.2-2.3-2.2-3.7c0-3,3.6-5.3,7.9-5.3c4.4,0,7.9,2.4,7.9,5.3C17.5,13.8,13.9,16.2,9.6,16.2z M21,12.7
	c-0.1-0.1-0.2-0.1-0.3-0.1c-0.1,0-0.1,0-0.1,0c-0.7,0.1-1.4,0.2-2.1,0.2c0.3-0.6,0.4-1.3,0.4-2c0-3.2-3.1-5.8-7.2-6.4
	c1.5-1.4,3.8-2.3,6.5-2.3c4.4,0,7.9,2.4,7.9,5.3c0,1.4-0.8,2.7-2.2,3.7c-0.2,0.2-0.3,0.5-0.2,0.8c0.2,0.6,0.7,1.7,1.3,2.6
	C23.3,14,21.7,13.2,21,12.7z"/>
</svg>
