<svg width="18" height="16" viewBox="0 0 18 16" fill="none" xmlns="http://www.w3.org/2000/svg">
<path d="M17.0983 1.64701C17.0264 1.5406 16.9187 1.46966 16.8109 1.46966L12.142 0.582905C11.9983 0.547435 11.8188 0.618375 11.711 0.724785C11.6392 0.795725 11.6392 0.866665 11.6033 0.937605C10.3822 0.689315 9.08922 0.689315 9.01739 0.689315C8.94556 0.689315 7.72445 0.689315 6.46743 0.902135C6.46743 0.831195 6.43151 0.760255 6.35968 0.689315C6.25194 0.582905 6.10828 0.511965 5.9287 0.547435L1.29567 1.46966C1.18793 1.46966 1.08018 1.5406 1.00835 1.64701C0.936523 1.75342 0.936523 1.85983 0.936523 2.00171L2.15763 7.14486C2.26538 7.60598 2.66044 7.92521 3.12734 7.96068C3.16325 7.96068 3.16325 7.96068 3.19917 7.96068C3.30691 7.96068 3.41466 7.96068 3.5224 7.92521V8.95384C3.5224 12.0043 4.67168 13.8132 6.68292 13.9551C6.93432 14.3808 7.61671 15.1611 9.05331 15.1611C10.4899 15.1611 11.1723 14.3808 11.4237 13.9551C13.4349 13.8132 14.5842 12.0043 14.5842 8.95384V7.92521C14.692 7.96068 14.7997 7.96068 14.9074 7.96068C14.9434 7.96068 14.9434 7.96068 14.9793 7.96068C15.4462 7.92521 15.8412 7.60598 15.949 7.14486L17.1701 2.00171C17.206 1.8953 17.1701 1.75342 17.0983 1.64701ZM3.19917 7.07392C3.16325 7.07392 3.05551 7.03845 3.05551 6.93204L1.94214 2.25L5.38998 1.57607L3.37874 6.96751C3.34283 7.07392 3.271 7.07392 3.19917 7.07392ZM9.05331 14.2743C8.44275 14.2743 8.01177 14.097 7.76037 13.8842C8.37092 13.7423 8.76599 13.4585 9.05331 13.1393C9.34062 13.4585 9.73569 13.7423 10.3462 13.8842C10.0948 14.0615 9.66386 14.2743 9.05331 14.2743ZM13.6863 8.95384C13.6863 10.8338 13.2554 13.0684 11.1723 13.0684C9.87935 13.0684 9.59203 12.3235 9.5202 12.1107C9.5202 12.0752 9.5202 12.0752 9.5202 12.0397V11.6496L10.1308 11.0466C10.3103 10.8692 10.3822 10.5855 10.2744 10.3726C10.1667 10.1243 9.95118 9.98247 9.69977 9.98247H8.44275C8.19135 9.98247 7.93994 10.1243 7.86811 10.3726C7.76037 10.6209 7.8322 10.8692 8.01177 11.0466L8.62233 11.6496V12.1107C8.58641 12.288 8.33501 13.1038 6.97024 13.1038C4.88717 13.1038 4.45619 10.8692 4.45619 8.98931V6.75469L6.18011 1.8953C7.43713 1.57607 8.98147 1.57607 9.01739 1.57607H9.05331C9.05331 1.57607 10.6336 1.57607 11.9265 1.8953L13.6863 6.71922V8.95384ZM15.0511 6.96751C15.0152 7.07392 14.9434 7.10939 14.9074 7.10939C14.8715 7.10939 14.7638 7.1094 14.7279 7.00298L12.7525 1.57607L16.2004 2.25L15.0511 6.96751Z" fill="black"/>
</svg>
