<svg xmlns="http://www.w3.org/2000/svg" viewBox="0 0 24 24"><path d="M 20.699219 14.898438 C 20.601563 15 20.601563 15 20.5 15 C 20.398438 15 20 15 19.800781 14.800781 C 19.601563 14.699219 19.300781 14.398438 19 14.199219 C 18.699219 14 17.699219 13.300781 17.101563 13 C 16.5 12.699219 16.199219 12.601563 16.101563 12.101563 C 16 11.601563 16 9.199219 16 9.199219 C 16 9.199219 15 9 14.199219 8.898438 C 13.398438 8.800781 12.300781 8.699219 11.101563 8.800781 C 9.898438 8.898438 8.800781 9 7.699219 9.398438 C 7.699219 10.800781 7.699219 12 7.699219 12.300781 C 7.699219 12.601563 7.699219 12.699219 7.300781 12.898438 C 6.898438 13.101563 6.199219 13.398438 5.699219 13.800781 C 5.199219 14.199219 4.601563 14.601563 4.300781 14.898438 C 3.898438 15.101563 3.898438 15 3.699219 15 C 3.5 15 3.199219 14.898438 3.101563 14.800781 C 3 14.800781 2.898438 14.601563 2.199219 13.898438 C 1.601563 13.300781 0.699219 12.398438 0.5 12.199219 C 0.300781 12 0.300781 12 0.199219 11.800781 C 0.199219 11.800781 0 11.398438 0 11.398438 C 0 11.300781 0.101563 10.898438 0.300781 10.699219 C 0.5 10.5 1.199219 9.898438 1.699219 9.5 C 2.199219 9.101563 3.699219 8.199219 4.300781 7.898438 C 4.898438 7.601563 6.898438 6.601563 9.800781 6.199219 C 12.800781 5.800781 15.699219 6.300781 17.699219 6.898438 C 19.699219 7.601563 21.601563 8.800781 22.5 9.398438 C 23.398438 10 23.699219 10.300781 23.800781 10.601563 C 24 10.898438 23.898438 11.199219 23.898438 11.398438 C 23.800781 11.601563 23.699219 11.800781 23.5 12 C 23.300781 12.199219 22.800781 12.699219 22.101563 13.398438 C 21.5 14.101563 20.699219 14.898438 20.699219 14.898438 Z"></path></svg>