<svg width="18" height="18" viewBox="0 0 18 18" fill="none" xmlns="http://www.w3.org/2000/svg">
<path d="M14.6078 6.67716C16.0085 5.47216 16.0078 4.27103 15.951 3.83959C15.8265 2.89339 15.107 2.17362 14.1604 2.04915C13.7295 1.99324 12.528 1.99113 11.3228 3.39198C11.4613 1.54985 10.6113 0.700689 10.2664 0.43592C9.50879 -0.144955 8.49138 -0.145658 7.73381 0.43592C7.3887 0.700689 6.53883 1.54985 6.67719 3.39198C5.47236 1.99183 4.27105 1.99219 3.83961 2.04915C2.89322 2.17362 2.17363 2.89339 2.04898 3.83959C1.9922 4.27103 1.99149 5.47216 3.39217 6.67716C1.54951 6.53933 0.700868 7.38884 0.435922 7.73378C-0.145307 8.49116 -0.145307 9.5091 0.435922 10.2665C0.700868 10.6111 1.54634 11.4592 3.39217 11.3231C1.99149 12.5281 1.9922 13.7292 2.04898 14.1607C2.17363 15.1069 2.89322 15.8266 3.83961 15.9511C4.2714 16.007 5.47236 16.0088 6.67719 14.6079C6.53883 16.4504 7.38887 17.2992 7.73399 17.564C8.11251 17.8548 8.55625 18 9 18C9.44375 18 9.88749 17.8548 10.2662 17.564C10.6113 17.2992 11.4613 16.4504 11.3228 14.6079C12.528 16.0088 13.7293 16.0067 14.1604 15.9511C15.107 15.8266 15.8265 15.1069 15.951 14.1607C16.0078 13.7292 16.0085 12.5281 14.608 11.3231C16.4508 11.462 17.2993 10.6114 17.5641 10.2665C18.1453 9.5091 18.1453 8.49116 17.5641 7.73378C17.2991 7.38919 16.453 6.54038 14.6078 6.67716ZM16.9927 9.82802C16.4036 10.5956 14.8744 11.0436 12.3485 9.9975C12.1641 9.92085 11.9541 10.0084 11.878 10.1923C11.8594 10.2373 11.8506 10.2841 11.8504 10.3298C11.8504 10.4711 11.9341 10.6054 12.0728 10.6628C14.5985 11.7088 15.3635 13.1069 15.2371 14.0664C15.1544 14.6948 14.6949 15.1543 14.0665 15.2373C13.1073 15.3597 11.7089 14.5991 10.6625 12.0728C10.5862 11.8892 10.3762 11.802 10.192 11.878C10.0533 11.9353 9.96959 12.0696 9.96959 12.2109C9.96977 12.2567 9.97856 12.3034 9.9972 12.3484C11.0434 14.8741 10.5957 16.4036 9.82789 16.993C9.32507 17.3783 8.67545 17.3787 8.17228 16.993C7.40434 16.4036 6.95673 14.8741 8.0028 12.3484C8.02144 12.3034 8.03023 12.2567 8.03041 12.2109C8.03041 12.0696 7.94672 11.9353 7.808 11.878C7.62376 11.802 7.41366 11.8892 7.33754 12.0728C6.29129 14.5984 4.89272 15.3586 3.93367 15.2373C3.30515 15.1543 2.84558 14.6948 2.76295 14.0664C2.63654 13.1069 3.40149 11.7088 5.92719 10.6628C6.0659 10.6054 6.14959 10.4711 6.14959 10.3298C6.14941 10.2841 6.14062 10.2373 6.12198 10.1923C6.04568 10.0084 5.83594 9.92085 5.65151 9.9975C3.12529 11.0436 1.59592 10.5956 1.00731 9.82802C0.621402 9.3252 0.621402 8.67506 1.00731 8.17224C1.59645 7.40466 3.12565 6.95635 5.65151 8.00276C5.83594 8.07871 6.04568 7.99116 6.12198 7.80797C6.14062 7.76296 6.14941 7.71619 6.14959 7.67048C6.14959 7.52913 6.0659 7.39481 5.92719 7.3375C3.40149 6.29143 2.63654 4.8934 2.76295 3.93383C2.84558 3.30513 3.30515 2.84557 3.93367 2.76294C4.89324 2.63565 6.29129 3.40112 7.33754 5.92716C7.41366 6.1107 7.62376 6.19755 7.808 6.12195C7.94672 6.06464 8.03041 5.93032 8.03041 5.78897C8.03023 5.74326 8.02144 5.69649 8.0028 5.65149C6.95673 3.12581 7.40434 1.59661 8.17228 1.0073C8.67528 0.621223 9.32525 0.621223 9.82789 1.0073C10.5957 1.59661 11.0434 3.12581 9.9972 5.65149C9.97856 5.69649 9.96977 5.74326 9.96959 5.78897C9.96959 5.93032 10.0533 6.06464 10.192 6.12195C10.3762 6.19755 10.5862 6.1107 10.6625 5.92716C11.7085 3.40148 13.1055 2.63811 14.0663 2.76294C14.6949 2.84557 15.1544 3.30513 15.2371 3.93383C15.3635 4.8934 14.5985 6.29143 12.0728 7.3375C11.9341 7.39481 11.8504 7.52913 11.8504 7.67048C11.8506 7.71619 11.8594 7.76296 11.878 7.80797C11.9541 7.99116 12.1641 8.07871 12.3485 8.00276C14.874 6.95635 16.4036 7.40431 16.9927 8.17224C17.3786 8.67506 17.3786 9.3252 16.9927 9.82802Z" fill="black"/>
<path d="M9.0001 6.59998C7.67678 6.59998 6.6001 7.6764 6.6001 8.99981C6.6001 10.3232 7.67678 11.4 9.0001 11.4C10.3234 11.4 11.4001 10.3232 11.4001 8.99981C11.4001 7.6764 10.3234 6.59998 9.0001 6.59998ZM9.0001 10.7237C8.04954 10.7237 7.27628 9.95043 7.27628 8.99981C7.27628 8.04952 8.04954 7.27621 9.0001 7.27621C9.95065 7.27621 10.7239 8.04952 10.7239 8.99981C10.7239 9.95043 9.95065 10.7237 9.0001 10.7237Z" fill="black"/>
</svg>
