<svg width="27" height="27" viewBox="0 0 27 27" fill="none" xmlns="http://www.w3.org/2000/svg">
<path d="M1.58824 11.1176C0.714706 11.1176 0 10.4029 0 9.52941V3.17647C0 1.42941 1.42941 0 3.17647 0H9.52941C10.4029 0 11.1176 0.714706 11.1176 1.58824C11.1176 2.46176 10.4029 3.17647 9.52941 3.17647H3.17647V9.52941C3.17647 10.4029 2.46176 11.1176 1.58824 11.1176ZM27 9.52941V3.17647C27 1.42941 25.5706 0 23.8235 0H17.4706C16.5971 0 15.8824 0.714706 15.8824 1.58824C15.8824 2.46176 16.5971 3.17647 17.4706 3.17647H23.8235V9.52941C23.8235 10.4029 24.5382 11.1176 25.4118 11.1176C26.2853 11.1176 27 10.4029 27 9.52941ZM11.1176 25.4118C11.1176 24.5382 10.4029 23.8235 9.52941 23.8235H3.17647V17.4706C3.17647 16.5971 2.46176 15.8824 1.58824 15.8824C0.714706 15.8824 0 16.5971 0 17.4706V23.8235C0 25.5706 1.42941 27 3.17647 27H9.52941C10.4029 27 11.1176 26.2853 11.1176 25.4118ZM27 23.8235V17.4706C27 16.5971 26.2853 15.8824 25.4118 15.8824C24.5382 15.8824 23.8235 16.5971 23.8235 17.4706V23.8235H17.4706C16.5971 23.8235 15.8824 24.5382 15.8824 25.4118C15.8824 26.2853 16.5971 27 17.4706 27H23.8235C25.5706 27 27 25.5706 27 23.8235Z" fill="black"/>
</svg>
