<?xml version="1.0" encoding="utf-8"?>
<!-- Generator: Adobe Illustrator 24.1.3, SVG Export Plug-In . SVG Version: 6.00 Build 0)  -->
<svg version="1.1" id="Layer_1" xmlns="http://www.w3.org/2000/svg" xmlns:xlink="http://www.w3.org/1999/xlink" x="0px" y="0px"
	 viewBox="0 0 24 22" style="enable-background:new 0 0 24 22;" xml:space="preserve">
<path d="M17.8,21.4H15c-0.5,0-0.9-0.2-1.2-0.5c-0.3-0.3-0.5-0.8-0.5-1.3v-3.5c0,0,0-0.1,0-0.1c0,0-0.1,0-0.1,0h-2.2c0,0-0.1,0-0.1,0
	c0,0,0,0.1,0,0.1v3.5c0,0.5-0.2,0.9-0.5,1.3c-0.3,0.3-0.8,0.5-1.2,0.5H6.2c-1.5,0-2.8-1.1-2.8-2.4v-6.5c-0.3,0.2-0.7,0.2-1.1,0.2
	c-0.3,0-0.5-0.1-0.8-0.2c-0.2-0.1-0.4-0.3-0.6-0.5c-0.2-0.3-0.3-0.6-0.4-0.9l0,0l0-0.4c0-0.3,0.1-0.6,0.2-0.9C0.9,9.4,1.1,9.2,1.4,9
	l9.4-7.9c0.7-0.6,1.8-0.6,2.6,0L22.7,9c0.4,0.3,0.7,0.8,0.7,1.4c0.1,0.5-0.1,1.1-0.4,1.5c-0.2,0.2-0.4,0.4-0.6,0.5
	c-0.2,0.1-0.5,0.2-0.7,0.2l-0.4,0v-0.2c-0.2,0-0.4-0.1-0.6-0.2V19C20.5,20.3,19.3,21.4,17.8,21.4z M10.9,15.6h2.2
	c0.1,0,0.3,0.1,0.4,0.2c0.1,0.1,0.2,0.2,0.2,0.4v3.5c0,0.4,0.1,0.7,0.4,1c0.2,0.3,0.6,0.4,1,0.4h2.8c1.3,0,2.4-0.9,2.4-2v-6.7
	l-0.8,0l0,6.7c0,0.3-0.2,0.6-0.5,0.8c-0.3,0.2-0.7,0.4-1.1,0.4H15c-0.1,0-0.3-0.1-0.4-0.2c-0.1-0.1-0.2-0.2-0.2-0.4v-3.5
	c0-0.4-0.1-0.7-0.4-1c-0.3-0.3-0.6-0.4-1-0.4h-2.2c-0.4,0-0.7,0.1-1,0.4c-0.3,0.3-0.4,0.6-0.4,1v3.5c0,0.1-0.1,0.3-0.2,0.4
	c-0.1,0.1-0.2,0.2-0.4,0.2H6.2c-0.4,0-0.8-0.1-1.1-0.4c-0.3-0.2-0.5-0.5-0.5-0.8v-6.7l-0.8,0V19c0,1.1,1.1,2,2.4,2H9
	c0.4,0,0.7-0.1,1-0.4c0.3-0.3,0.4-0.6,0.4-1v-3.5c0-0.1,0.1-0.3,0.2-0.4C10.6,15.6,10.8,15.6,10.9,15.6z M10.9,14.4h2.2
	c0.5,0,0.9,0.2,1.2,0.5c0.3,0.3,0.5,0.8,0.5,1.3v3.5c0,0,0,0.1,0,0.1c0,0,0.1,0,0.1,0h2.8c0.3,0,0.6-0.1,0.8-0.3
	c0.2-0.1,0.3-0.3,0.3-0.5l0-6.7l-13.8,0l0,6.7c0,0.2,0.1,0.4,0.3,0.5c0.2,0.2,0.5,0.3,0.8,0.3H9c0,0,0.1,0,0.1,0c0,0,0-0.1,0-0.1
	v-3.5c0-0.5,0.2-0.9,0.5-1.3C10,14.5,10.4,14.4,10.9,14.4z M1,10.9c0.1,0.3,0.2,0.5,0.3,0.7c0.1,0.2,0.3,0.3,0.5,0.4
	c0.2,0.1,0.4,0.2,0.6,0.2c0.3,0,0.6,0,0.8-0.1L1,10.9z M21.6,12v0.2c0.2,0,0.4-0.1,0.6-0.2c0.2-0.1,0.3-0.2,0.5-0.4
	c0.3-0.3,0.4-0.8,0.4-1.2c0-0.4-0.3-0.8-0.6-1.1l0,0l-8.3-7l1.8,2.6l6,5c0,0,0,0,0,0L22,10c0.1,0.1,0.2,0.3,0.2,0.5
	c0,0.2,0,0.4-0.2,0.6c-0.1,0.1-0.1,0.2-0.2,0.2c-0.1,0.1-0.2,0.1-0.3,0.1c-0.1,0-0.2,0-0.3,0c-0.1,0-0.2-0.1-0.3-0.1l0,0l-1.7-1.4
	l1.3,1.9c0.2,0.2,0.5,0.3,0.9,0.3c0,0,0,0,0,0H21.6z M2.7,11.4l1,0.5l1,0v-0.4c0-0.2,0-0.3,0.1-0.5c0.1-0.1,0.2-0.3,0.3-0.4l0,0
	l6.4-5.2c0.3-0.2,0.7-0.2,1,0l6.4,5.2c0.1,0.1,0.2,0.2,0.3,0.4c0.1,0.1,0.1,0.3,0.1,0.5l0,0.4l0.8,0l-2-3L13,4.6
	c-0.3-0.2-0.6-0.4-1-0.4c-0.4,0-0.7,0.1-1,0.4l-7.9,6.6C3,11.3,2.9,11.4,2.7,11.4z M12,5.6c-0.1,0-0.2,0-0.3,0.1L5.3,11
	c-0.1,0.1-0.1,0.1-0.2,0.2c0,0.1-0.1,0.2-0.1,0.3v0.4l13.8,0l0-0.4c0-0.1,0-0.2-0.1-0.3c0-0.1-0.1-0.2-0.2-0.2l-6.4-5.2
	C12.2,5.7,12.1,5.6,12,5.6z M9.4,4.3l-7.1,6c0,0-0.1,0.1-0.1,0.2c0,0.1,0,0.1,0,0.2c0,0.1,0,0.2,0.1,0.3C2.4,10.9,2.5,11,2.6,11
	c0.1,0,0.2,0,0.3-0.1l7.9-6.6C11.1,4,11.5,3.8,12,3.8c0.5,0,0.9,0.2,1.3,0.5l4,3.4l-1.7-2.5l-3.4-2.8c0,0-0.1-0.1-0.1-0.1L9.4,4.3z
	 M21.1,10.9c0,0,0.1,0.1,0.1,0.1c0,0,0.1,0,0.1,0c0.1,0,0.1,0,0.1,0c0,0,0.1-0.1,0.1-0.1c0.1-0.1,0.1-0.2,0.1-0.3
	c0-0.1,0-0.2-0.1-0.2h-0.1v-0.1l-4.8-4.1l1.7,2.5L21.1,10.9L21.1,10.9z M1.2,10.6L1.9,11c-0.1-0.1-0.1-0.2-0.1-0.4
	c0-0.1,0-0.2,0.1-0.4C1.9,10.1,2,10,2.1,9.9l1.2-1L1.2,10.6z M12,1c-0.4,0-0.7,0.1-1,0.4L1.6,9.3C1.4,9.4,1.3,9.6,1.2,9.9
	c0,0.1-0.1,0.2-0.1,0.3L9.2,4L11.5,2c0.1-0.1,0.3-0.2,0.5-0.2c0,0,0,0,0,0l0.8-0.6C12.6,1.1,12.3,1,12,1z M12.5,2
	C12.5,2,12.5,2,12.5,2l2.3,2l-1.7-2.5L12.5,2z"/>
</svg>
