<svg width="17" height="17" viewBox="0 0 17 17" fill="none" xmlns="http://www.w3.org/2000/svg">
<path d="M16.5278 0H8.50007C3.81321 0 0.000141689 3.8131 0.000141689 8.5C0.000141689 10.6739 0.821424 12.659 2.16876 14.1636L0.138407 16.1938C-0.0461357 16.3782 -0.0461357 16.6772 0.138407 16.8615C0.230773 16.9539 0.351472 17 0.47236 17C0.593248 17 0.713947 16.9539 0.806313 16.8617L2.83666 14.8314C4.34115 16.1787 6.32617 17 8.50007 17C13.1869 17 17 13.1869 17 8.5V0.472222C17 0.211367 16.7886 0 16.5278 0ZM16.0556 8.5C16.0556 12.6661 12.6662 16.0556 8.50007 16.0556C6.58664 16.0556 4.83811 15.3391 3.50551 14.1623L4.4456 13.2222H10.8612C11.122 13.2222 11.3334 13.0109 11.3334 12.75C11.3334 12.4891 11.122 12.2778 10.8612 12.2778H5.39004L7.27891 10.3889H12.75C13.0109 10.3889 13.2223 10.1775 13.2223 9.91667C13.2223 9.65581 13.0109 9.44444 12.75 9.44444H8.22335L10.1122 7.55556H13.6945C13.9553 7.55556 14.1667 7.34419 14.1667 7.08333C14.1667 6.82248 13.9553 6.61111 13.6945 6.61111H11.0567L14.0282 3.63951C14.2128 3.45516 14.2128 3.15614 14.0282 2.97179C13.8437 2.78724 13.5449 2.78724 13.3605 2.97179L10.3889 5.94339V3.30556C10.3889 3.0447 10.1776 2.83333 9.91673 2.83333C9.65587 2.83333 9.44451 3.0447 9.44451 3.30556V6.88783L7.55563 8.77672V4.25C7.55563 3.98914 7.34427 3.77778 7.08342 3.77778C6.82256 3.77778 6.6112 3.98914 6.6112 4.25V9.72117L4.72232 11.6101V6.13889C4.72232 5.87803 4.51096 5.66667 4.25011 5.66667C3.98925 5.66667 3.77789 5.87803 3.77789 6.13889V12.5545L2.8378 13.4946C1.66103 12.162 0.944578 10.4134 0.944578 8.5C0.944578 4.33387 4.33397 0.944444 8.50007 0.944444H16.0556V8.5Z" fill="black"/>
</svg>
