<svg xmlns="http://www.w3.org/2000/svg" viewBox="0 0 16 16"><path d="M 7.5 1 C 6.3125 1 5.324219 1.832031 5.070313 2.945313 L 6 3.875 L 6 3.5 C 6 2.671875 6.671875 2 7.5 2 C 8.328125 2 9 2.671875 9 3.5 L 9 6.875 L 9.96875 7.84375 C 9.980469 7.730469 10 7.617188 10 7.5 L 10 3.5 C 10 2.121094 8.878906 1 7.5 1 Z M 2.726563 2.023438 L 2.023438 2.726563 L 5 5.707031 L 5 7.5 C 5 8.878906 6.121094 10 7.5 10 C 8.007813 10 8.472656 9.835938 8.867188 9.570313 L 9.578125 10.28125 C 8.996094 10.722656 8.285156 11 7.5 11 C 5.570313 11 4 9.429688 4 7.5 L 4 7 L 3 7 L 3 7.5 C 3 9.808594 4.757813 11.695313 7 11.949219 L 7 14 L 5 14 L 5 15 L 10 15 L 10 14 L 8 14 L 8 11.96875 C 8.863281 11.871094 9.652344 11.523438 10.296875 11 L 13.269531 13.980469 L 13.980469 13.269531 L 11 10.292969 L 10.296875 9.585938 C 10.296875 9.585938 10.292969 9.585938 10.292969 9.585938 L 9.585938 8.875 L 8.851563 8.140625 L 6 5.292969 L 6 5.289063 L 5 4.289063 L 5 4.292969 Z M 6 6.707031 L 8.132813 8.84375 C 7.941406 8.933594 7.730469 9 7.5 9 C 6.671875 9 6 8.328125 6 7.5 Z M 11 7 L 11 7.5 C 11 7.910156 10.917969 8.296875 10.785156 8.664063 L 11.550781 9.425781 C 11.832031 8.839844 12 8.191406 12 7.5 L 12 7 Z"></path></svg>