<svg xmlns="http://www.w3.org/2000/svg" viewBox="0 0 16 16"><path d="M 7.5 1 C 6.128906 1 5 2.128906 5 3.5 L 5 7.5 C 5 8.871094 6.128906 10 7.5 10 C 8.871094 10 10 8.871094 10 7.5 L 10 3.5 C 10 2.128906 8.871094 1 7.5 1 Z M 7.5 2 C 8.328125 2 9 2.671875 9 3.5 L 9 7.5 C 9 8.328125 8.328125 9 7.5 9 C 6.671875 9 6 8.328125 6 7.5 L 6 3.5 C 6 2.671875 6.671875 2 7.5 2 Z M 3 7 L 3 7.5 C 3 9.800781 4.761719 11.695313 7 11.949219 L 7 14 L 5 14 L 5 15 L 10 15 L 10 14 L 8 14 L 8 11.949219 C 10.238281 11.695313 12 9.800781 12 7.5 L 12 7 L 11 7 L 11 7.5 C 11 9.425781 9.425781 11 7.5 11 C 5.574219 11 4 9.425781 4 7.5 L 4 7 Z"></path></svg>