<?xml version="1.0" encoding="utf-8"?>
<!-- Generator: Adobe Illustrator 24.1.3, SVG Export Plug-In . SVG Version: 6.00 Build 0)  -->
<svg version="1.1" id="Layer_1" xmlns="http://www.w3.org/2000/svg" xmlns:xlink="http://www.w3.org/1999/xlink" x="0px" y="0px"
	 viewBox="0 0 21 21" style="enable-background:new 0 0 21 21;" xml:space="preserve">
<g>
	<path d="M20.4,7H0.6C0.2,7,0,7.3,0,7.7v5.7C0,13.7,0.2,14,0.6,14h19.9c0.3,0,0.6-0.3,0.6-0.7V7.7C21,7.3,20.8,7,20.4,7z M4.2,9.9
		l-1.4,1.8c-0.1,0.1-0.2,0.2-0.3,0.2c-0.1,0-0.2-0.1-0.3-0.2l-0.7-1c-0.2-0.2-0.2-0.5,0-0.7c0.2-0.2,0.4-0.2,0.6,0l0.4,0.6l1.1-1.4
		C3.8,9,4.1,9,4.2,9.2C4.4,9.4,4.4,9.7,4.2,9.9z M19.9,12.7L19.9,12.7H5.7V8.3h14.2V12.7z"/>
	<path d="M0.5,6.3h14.3c0.3,0,0.5-0.3,0.5-0.6V0.6c0-0.3-0.2-0.6-0.5-0.6H0.5C0.2,0,0,0.3,0,0.6v5.1C0,6,0.2,6.3,0.5,6.3z M5.6,1.2
		h8.7v3.9H5.6V1.2z"/>
	<path d="M11.4,14.7H0.5C0.2,14.7,0,15,0,15.3v5.1C0,20.7,0.2,21,0.5,21h10.8c0.3,0,0.5-0.3,0.5-0.6v-5.1
		C11.9,15,11.7,14.7,11.4,14.7z M10.8,19.8H5.5v-3.9h5.3V19.8z"/>
</g>
</svg>
