<?xml version="1.0" encoding="utf-8"?>
<!-- Generator: Adobe Illustrator 24.1.3, SVG Export Plug-In . SVG Version: 6.00 Build 0)  -->
<svg version="1.1" id="Layer_1" xmlns="http://www.w3.org/2000/svg" xmlns:xlink="http://www.w3.org/1999/xlink" x="0px" y="0px"
	 viewBox="0 0 21 21" style="enable-background:new 0 0 21 21;" xml:space="preserve">
<g>
	<path d="M10.5,0C4.7,0,0,4.7,0,10.5C0,16.3,4.7,21,10.5,21C16.3,21,21,16.3,21,10.5C21,4.7,16.3,0,10.5,0z M10.5,20
		C5.3,20,1,15.7,1,10.5S5.3,1,10.5,1S20,5.3,20,10.5S15.7,20,10.5,20z"/>
	<path d="M10.5,14.1c-0.1-0.1-0.3-0.1-0.4-0.1C9.9,14,9.7,14,9.5,14c-0.4,0-0.8,0.1-1,0.2c-0.1,0.2-0.2,0.5-0.2,0.8
		c0,0.2,0,0.4,0.1,0.6c0,0.1,0.1,0.2,0.2,0.3c0.1,0,0.2,0.1,0.4,0.1S9.3,16,9.5,16c0.2,0,0.4,0,0.5-0.1c0.2,0,0.3-0.1,0.4-0.1
		c0.1,0,0.2-0.1,0.2-0.3c0-0.1,0.1-0.3,0.1-0.6c0-0.2,0-0.4-0.1-0.6C10.7,14.3,10.6,14.2,10.5,14.1z"/>
	<path d="M10.4,4C9.3,4,8.1,4.3,7,4.9c0,0.2,0.1,0.5,0.2,0.7C7.4,5.8,7.5,6,7.7,6.2C8.2,6,8.6,5.8,9,5.7c0.4-0.1,0.8-0.2,1.1-0.2
		c0.6,0,1.1,0.1,1.4,0.4C11.8,6.3,12,6.6,12,7.1s-0.2,0.8-0.6,1.2C11,8.7,10.5,9,9.7,9.4L8.8,9.8L8.7,10l0.1,2.5
		c0.2,0.1,0.5,0.1,0.7,0.1c0.3,0,0.5,0,0.7-0.1l0.1-1.7l1.2-0.6c0.8-0.4,1.4-0.9,1.8-1.4C13.8,8.2,14,7.6,14,6.9
		c0-0.9-0.3-1.6-0.9-2.1C12.5,4.3,11.6,4,10.4,4z"/>
</g>
</svg>
