<svg width="17" height="16" viewBox="0 0 17 16" fill="none" xmlns="http://www.w3.org/2000/svg">
<path d="M16.9714 7.59221C16.8572 7.1217 6.11811 2.17614 2.90885 0.691421C-0.30042 -0.7933 -0.279659 0.346362 0.301956 1.91473C0.883571 3.4831 1.51713 6.92302 1.51713 6.92302C1.51713 6.92302 5.77535 7.00669 7.30209 7.26808C8.55879 7.48765 8.92232 7.87453 9.00541 8C8.91193 8.13593 8.55879 8.5228 7.30209 8.73192C5.76497 8.99331 1.51713 9.07691 1.51713 9.07691C1.51713 9.07691 0.883571 12.5169 0.301956 14.0853C-0.279659 15.6536 -0.310806 16.7933 2.90885 15.3086C6.11811 13.8239 16.8572 8.86778 16.9714 8.40773C17.013 8.25089 17.0026 8.115 16.9818 7.98953C17.0026 7.88498 17.013 7.73859 16.9714 7.59221Z" fill="#000"/>
</svg>
