<svg width="18" height="18" viewBox="0 0 18 18" fill="none" xmlns="http://www.w3.org/2000/svg">
<g opacity="1">
<path d="M16.4364 18H1.56356C1.14407 18 0.80085 17.656 0.80085 17.2357V4.70063C0.80085 4.28025 1.14407 3.9363 1.56356 3.9363H16.3983C16.8178 3.9363 17.161 4.28025 17.161 4.70063V17.2357C17.161 17.656 16.8178 18 16.4364 18ZM2.32627 16.4713H15.6737V5.42675H2.32627V16.4713Z" fill="#000"/>
<path d="M17.2373 5.42676H0.762712C0.34322 5.42676 0 5.08281 0 4.66243C0 4.24204 0.34322 3.89809 0.762712 3.89809H17.2373C17.6568 3.89809 18 4.24204 18 4.66243C18 5.12103 17.6568 5.42676 17.2373 5.42676Z" fill="#000"/>
<path d="M17.2373 18H0.762712C0.34322 18 0 17.656 0 17.2357C0 16.8153 0.34322 16.4713 0.762712 16.4713H17.2373C17.6568 16.4713 18 16.8153 18 17.2357C18 17.656 17.6568 18 17.2373 18Z" fill="#000"/>
<path d="M16.4364 5.42675H1.52542C1.10593 5.42675 0.762712 5.0828 0.762712 4.66242V1.91083C0.762712 0.840765 1.63983 0 2.66949 0H15.2161C16.2839 0 17.1229 0.878981 17.1229 1.91083V4.70064C17.161 5.12102 16.8178 5.42675 16.4364 5.42675ZM2.28814 3.93631H15.6737V1.91083C15.6737 1.68153 15.4831 1.49045 15.2542 1.49045H2.70763C2.47881 1.49045 2.28814 1.68153 2.28814 1.91083V3.93631Z" fill="#000"/>
<path d="M11.4788 18H6.52119C6.1017 18 5.75848 17.656 5.75848 17.2357V10.242C5.75848 9.82165 6.1017 9.4777 6.52119 9.4777H11.4788C11.8983 9.4777 12.2415 9.82165 12.2415 10.242V17.2357C12.2415 17.656 11.8983 18 11.4788 18ZM7.24576 16.4713H10.7161V11.0064H7.24576V16.4713Z" fill="#000"/>
</g>
</svg>
