<svg width="15" height="19" viewBox="0 0 15 19" fill="none" xmlns="http://www.w3.org/2000/svg">
<path d="M15 17.7333C15 18.4293 14.443 19 13.753 19H1.24699C0.560115 19 0 18.4314 0 17.7333C0 13.536 3.35786 10.1333 7.5 10.1333C11.6421 10.1333 15 13.536 15 17.7333ZM7.5 11.8222C4.41844 11.8222 1.89496 14.2436 1.68132 17.3111H13.3187C13.105 14.2436 10.5816 11.8222 7.5 11.8222ZM7.5 9.28889C4.96869 9.28889 2.91667 7.2095 2.91667 4.64444C2.91667 2.07939 4.96869 0 7.5 0C10.0313 0 12.0833 2.07939 12.0833 4.64444C12.0833 7.2095 10.0313 9.28889 7.5 9.28889ZM7.5 7.6C9.11083 7.6 10.4167 6.27675 10.4167 4.64444C10.4167 3.01214 9.11083 1.68889 7.5 1.68889C5.88917 1.68889 4.58333 3.01214 4.58333 4.64444C4.58333 6.27675 5.88917 7.6 7.5 7.6Z" fill="#000"/>
</svg>
