<?xml version="1.0" encoding="utf-8"?>
<!-- Generator: Adobe Illustrator 24.1.3, SVG Export Plug-In . SVG Version: 6.00 Build 0)  -->
<svg version="1.1" id="Layer_1" xmlns="http://www.w3.org/2000/svg" xmlns:xlink="http://www.w3.org/1999/xlink" x="0px" y="0px"
	 viewBox="0 0 24 24" style="enable-background:new 0 0 24 24;" xml:space="preserve">
<path d="M12,24C5.4,24,0,18.6,0,12C0,5.4,5.4,0,12,0c6.6,0,12,5.4,12,12C24,18.6,18.6,24,12,24z M12,1C5.9,1,1,5.9,1,12
	s4.9,11,11,11s11-4.9,11-11S18.1,1,12,1z"/>
<path d="M16.9,16c0,0.4-0.3,0.7-0.7,0.7H8.7c-0.4,0-0.7-0.3-0.7-0.7c0-2.5,2-4.5,4.5-4.5C14.9,11.5,16.9,13.5,16.9,16z M12.4,12.5
	c-1.8,0-3.3,1.4-3.5,3.2h7C15.7,13.9,14.2,12.5,12.4,12.5z M12.4,11c-1.5,0-2.7-1.2-2.7-2.7s1.2-2.7,2.7-2.7s2.7,1.2,2.7,2.7
	S13.9,11,12.4,11z M12.4,10c1,0,1.7-0.8,1.7-1.7s-0.8-1.7-1.7-1.7s-1.7,0.8-1.7,1.7S11.4,10,12.4,10z"/>
</svg>
