<svg xmlns="http://www.w3.org/2000/svg" viewBox="0 0 50 50"><path d="M 0.90625 -0.03125 C 0.863281 -0.0234375 0.820313 -0.0117188 0.78125 0 C 0.40625 0.0664063 0.105469 0.339844 0 0.703125 C -0.105469 1.070313 0.00390625 1.460938 0.28125 1.71875 L 48.28125 49.71875 C 48.679688 50.117188 49.320313 50.117188 49.71875 49.71875 C 50.117188 49.320313 50.117188 48.679688 49.71875 48.28125 L 37.09375 35.65625 L 37.09375 30.71875 L 48.53125 36.875 L 50 37.6875 L 50 12.3125 L 48.53125 13.125 L 37.09375 19.28125 L 37.09375 14 C 37.09375 11.199219 34.894531 9 32.09375 9 L 10.4375 9 L 1.71875 0.28125 C 1.511719 0.0585938 1.210938 -0.0546875 0.90625 -0.03125 Z M 5 9 C 2.300781 9 0 11.300781 0 14 L 0 36 C 0 38.800781 2.199219 41 5 41 L 32 41 C 33.398438 41 34.601563 40.394531 35.5 39.59375 L 34.09375 38.09375 C 33.59375 38.695313 32.800781 39 32 39 L 5 39 C 3.300781 39 2 37.699219 2 36 L 2 14 C 2 12.300781 3.300781 11 5 11 L 6.90625 11 Z M 12.4375 11 L 32 11 C 33.699219 11 35 12.300781 35 14 L 35 33.5625 Z M 48 15.65625 L 48 34.34375 L 37.09375 28.46875 L 37.09375 21.53125 Z"></path></svg>