<?xml version="1.0" encoding="utf-8"?>
<!-- Generator: Adobe Illustrator 24.1.3, SVG Export Plug-In . SVG Version: 6.00 Build 0)  -->
<svg version="1.1" id="Layer_1" xmlns="http://www.w3.org/2000/svg" xmlns:xlink="http://www.w3.org/1999/xlink" x="0px" y="0px"
	 viewBox="0 0 31 22" style="enable-background:new 0 0 31 22;" xml:space="preserve">
<path d="M26.9,0.5H4.4c-2.2,0-4,1.8-4,4V18c0,2.2,1.8,4,4,4h22.5c2.2,0,4-1.8,4-4V4.5C30.9,2.3,29.1,0.5,26.9,0.5z M29.2,18
	c0,1.3-1,2.3-2.3,2.3H4.4c-1.3,0-2.3-1-2.3-2.3V4.5c0-1.3,1-2.3,2.3-2.3h22.5c1.3,0,2.3,1,2.3,2.3V18z"/>
<path d="M19.7,10.1l-5.8-3.3c-0.7-0.4-1.5,0.1-1.5,0.9v6.7c0,0.8,0.8,1.3,1.5,0.9l5.8-3.3C20.3,11.4,20.3,10.5,19.7,10.1z"/>
</svg>
