<?xml version="1.0" encoding="utf-8"?>
<!-- Generator: Adobe Illustrator 24.1.3, SVG Export Plug-In . SVG Version: 6.00 Build 0)  -->
<svg version="1.1" id="Layer_1" xmlns="http://www.w3.org/2000/svg" xmlns:xlink="http://www.w3.org/1999/xlink" x="0px" y="0px"
	 viewBox="0 0 24 24" style="enable-background:new 0 0 24 24;" xml:space="preserve">
<path d="M12,24C5.4,24,0,18.6,0,12S5.4,0,12,0s12,5.4,12,12S18.6,24,12,24z M12,1C5.9,1,1,5.9,1,12s4.9,11,11,11s11-4.9,11-11
	S18.1,1,12,1z"/>
<path d="M13.6,15.2h-7c-0.6,0-1-0.5-1-1v-5c0-0.6,0.5-1,1-1h7c0.6,0,1,0.5,1,1v5C14.6,14.7,14.2,15.2,13.6,15.2z"/>
<path d="M15.3,10.2v3.1l2.8,1.6c0.1,0.1,0.3,0,0.3-0.2v-6c0-0.1-0.1-0.2-0.3-0.2L15.3,10.2z"/>
</svg>
