<svg width="128" height="55" viewBox="0 0 128 55" fill="none" xmlns="http://www.w3.org/2000/svg">
<rect width="128" height="55" rx="27.5" fill="black"/>
<path d="M31.4262 32.2962L23.0917 28.62V27.4198L31.4262 23.2568V25.2711L25.6852 27.9317L31.4262 30.2902V32.2962ZM42.8408 27.1092H47.7089V33.4712C46.9199 33.7286 46.1757 33.9077 45.4763 34.0084C44.7825 34.1147 44.0718 34.1679 43.3444 34.1679C41.4923 34.1679 40.0767 33.6251 39.0975 32.5396C38.1239 31.4485 37.6371 29.8846 37.6371 27.8478C37.6371 25.867 38.2022 24.3227 39.3325 23.2148C40.4684 22.1069 42.0407 21.5529 44.0495 21.5529C45.3084 21.5529 46.5226 21.8047 47.6921 22.3083L46.8276 24.3898C45.9323 23.9422 45.0007 23.7184 44.0327 23.7184C42.908 23.7184 42.0071 24.0961 41.3301 24.8515C40.653 25.6068 40.3145 26.6224 40.3145 27.8982C40.3145 29.2299 40.5859 30.2483 41.1286 30.9533C41.677 31.6527 42.4715 32.0024 43.5123 32.0024C44.0551 32.0024 44.6062 31.9465 45.1658 31.8346V29.2747H42.8408V27.1092ZM52.4762 29.2914C52.4762 30.2203 52.6273 30.9225 52.9294 31.3981C53.2372 31.8737 53.7352 32.1115 54.4234 32.1115C55.106 32.1115 55.5957 31.8765 55.8922 31.4065C56.1944 30.9309 56.3454 30.2259 56.3454 29.2914C56.3454 28.3626 56.1944 27.666 55.8922 27.2015C55.5901 26.7371 55.0949 26.5049 54.4066 26.5049C53.724 26.5049 53.2316 26.7371 52.9294 27.2015C52.6273 27.6604 52.4762 28.357 52.4762 29.2914ZM58.9641 29.2914C58.9641 30.819 58.5612 32.0136 57.7555 32.8753C56.9497 33.737 55.8279 34.1679 54.3898 34.1679C53.489 34.1679 52.6944 33.972 52.0062 33.5803C51.3179 33.1831 50.7892 32.6151 50.4199 31.8765C50.0506 31.1379 49.8659 30.2762 49.8659 29.2914C49.8659 27.7583 50.266 26.5665 51.0661 25.716C51.8663 24.8654 52.991 24.4402 54.4402 24.4402C55.3411 24.4402 56.1356 24.636 56.8238 25.0277C57.5121 25.4194 58.0409 25.9817 58.4102 26.7147C58.7795 27.4477 58.9641 28.3066 58.9641 29.2914ZM65.7458 21.7292H69.5647C71.3048 21.7292 72.5666 21.9782 73.35 22.4762C74.1389 22.9686 74.5334 23.7548 74.5334 24.8347C74.5334 25.5677 74.36 26.1692 74.013 26.6392C73.6717 27.1092 73.2157 27.3918 72.6449 27.4869V27.5708C73.4227 27.7443 73.9823 28.0688 74.3236 28.5444C74.6705 29.0201 74.844 29.6523 74.844 30.4413C74.844 31.5604 74.4383 32.4333 73.6269 33.06C72.8212 33.6867 71.7245 34 70.3368 34H65.7458V21.7292ZM68.3477 26.5888H69.8584C70.5634 26.5888 71.0726 26.4797 71.386 26.2615C71.7049 26.0433 71.8644 25.6824 71.8644 25.1788C71.8644 24.7088 71.6909 24.373 71.344 24.1716C71.0027 23.9646 70.4599 23.8611 69.7157 23.8611H68.3477V26.5888ZM68.3477 28.6536V31.8514H70.0431C70.7593 31.8514 71.2881 31.7143 71.6294 31.4401C71.9707 31.1659 72.1414 30.7463 72.1414 30.1811C72.1414 29.1627 71.414 28.6536 69.9591 28.6536H68.3477ZM83.0525 34L82.5573 32.7242H82.4901C82.0593 33.267 81.6144 33.6447 81.1556 33.8573C80.7024 34.0643 80.1093 34.1679 79.3763 34.1679C78.4754 34.1679 77.7648 33.9105 77.2444 33.3957C76.7296 32.8809 76.4722 32.1479 76.4722 31.1967C76.4722 30.2007 76.8192 29.4677 77.513 28.9977C78.2124 28.5221 79.2644 28.2591 80.6688 28.2087L82.2971 28.1584V27.7471C82.2971 26.7959 81.8103 26.3203 80.8367 26.3203C80.0869 26.3203 79.2056 26.5469 78.1928 27.0001L77.3451 25.2711C78.425 24.706 79.6225 24.4234 80.9374 24.4234C82.1964 24.4234 83.1616 24.6976 83.833 25.2459C84.5045 25.7943 84.8402 26.628 84.8402 27.7471V34H83.0525ZM82.2971 29.6523L81.3067 29.6859C80.5625 29.7083 80.0086 29.8426 79.6449 30.0888C79.2811 30.335 79.0993 30.7099 79.0993 31.2135C79.0993 31.9353 79.5134 32.2962 80.3415 32.2962C80.9346 32.2962 81.4074 32.1255 81.7599 31.7842C82.118 31.4429 82.2971 30.9897 82.2971 30.4245V29.6523ZM91.2946 34.1679C88.3737 34.1679 86.9133 32.5648 86.9133 29.3586C86.9133 27.7639 87.3106 26.5469 88.1052 25.7076C88.8997 24.8626 90.0384 24.4402 91.5212 24.4402C92.6067 24.4402 93.5803 24.6528 94.442 25.0781L93.6866 27.0589C93.2837 26.8966 92.9088 26.7651 92.5619 26.6644C92.215 26.5581 91.8681 26.5049 91.5212 26.5049C90.1895 26.5049 89.5236 27.4505 89.5236 29.3418C89.5236 31.1771 90.1895 32.0948 91.5212 32.0948C92.0136 32.0948 92.4696 32.0304 92.8893 31.9017C93.3089 31.7674 93.7286 31.5604 94.1482 31.2806V33.4712C93.7342 33.7342 93.3145 33.9161 92.8893 34.0168C92.4696 34.1175 91.938 34.1679 91.2946 34.1679ZM98.7896 28.897L99.9059 27.4701L102.533 24.6164H105.42L101.694 28.6871L105.647 34H102.692L99.9899 30.1979L98.8904 31.0792V34H96.3305V20.9402H98.8904V26.7651L98.7561 28.897H98.7896Z" fill="white"/>
</svg>
