<svg width="125" height="125" viewBox="0 0 125 125" fill="none" xmlns="http://www.w3.org/2000/svg">
<g filter="url(#filter0_dd_396_344)">
<path d="M62.1406 116.281C73.6398 116.281 84.8807 112.871 94.4419 106.483C104.003 100.094 111.455 91.0139 115.855 80.3901C120.256 69.7663 121.407 58.0762 119.164 46.798C116.921 35.5198 111.383 25.1601 103.252 17.029C95.1211 8.89789 84.7615 3.36056 73.4833 1.11719C62.2051 -1.12618 50.515 0.0251641 39.8912 4.42569C29.2674 8.82622 20.1871 16.2782 13.7985 25.8394C7.40994 35.4006 4 46.6415 4 58.1406C4 73.5605 10.1255 88.3488 21.0289 99.2523C31.9324 110.156 46.7208 116.281 62.1406 116.281Z" fill="#F17922"/>
<path d="M61.9355 39.8514L45.565 52.0494H36.5817C35.8742 52.0494 35.1957 52.3305 34.6955 52.8308C34.1952 53.331 33.9141 54.0096 33.9141 54.7171V64.658C33.9141 65.3655 34.1952 66.044 34.6955 66.5443C35.1957 67.0446 35.8742 67.3257 36.5817 67.3257H45.565L61.9128 79.7062C62.1191 79.878 62.3706 79.9864 62.6372 80.0184C62.9037 80.0503 63.1737 80.0046 63.4148 79.8864C63.6559 79.7683 63.8576 79.583 63.9957 79.3528C64.1337 79.1225 64.2022 78.8572 64.1929 78.5889V41.037C64.2022 40.7687 64.1337 40.5035 63.9957 40.2732C63.8576 40.043 63.6559 39.8577 63.4148 39.7396C63.1737 39.6214 62.9037 39.5756 62.6372 39.6076C62.3706 39.6395 62.1191 39.748 61.9128 39.9198L61.9355 39.8514Z" fill="white"/>
<path d="M87.1293 46.7182C85.3424 43.1751 82.8061 40.0632 79.6964 37.5981C79.5393 37.4721 79.3576 37.38 79.1632 37.3276C78.9687 37.2752 78.7655 37.2636 78.5663 37.2936C78.3671 37.3236 78.1763 37.3945 78.0059 37.5018C77.8354 37.6092 77.6891 37.7506 77.576 37.9173C77.3597 38.2304 77.27 38.6138 77.325 38.9903C77.38 39.3668 77.5756 39.7084 77.8724 39.9465C80.8439 42.3277 83.2414 45.3471 84.8873 48.7809C86.5332 52.2147 87.3851 55.9748 87.3801 59.7827C87.3313 63.6179 86.3763 67.3872 84.5932 70.783C82.8101 74.1788 80.2494 77.1049 77.12 79.3225C76.8196 79.5574 76.6195 79.8976 76.5603 80.2743C76.501 80.6509 76.587 81.036 76.8008 81.3518C76.9124 81.5193 77.0571 81.6623 77.2259 81.772C77.3947 81.8818 77.5841 81.956 77.7825 81.9901C77.981 82.0243 78.1842 82.0177 78.38 81.9706C78.5757 81.9236 78.7599 81.8372 78.9212 81.7167C82.4113 79.1338 85.2848 75.8086 87.3345 71.9809C89.315 68.2192 90.3555 64.0339 90.3669 59.7827C90.3501 55.2095 89.2401 50.7067 87.1293 46.6498V46.7182Z" fill="white"/>
<path d="M78.4887 52.4371C77.3242 49.9514 75.6908 47.714 73.6779 45.8478C73.529 45.6882 73.3467 45.5636 73.1441 45.4827C72.9414 45.4017 72.7235 45.3665 72.5057 45.3796C72.2879 45.3927 72.0756 45.4537 71.8841 45.5583C71.6926 45.6629 71.5266 45.8084 71.3979 45.9846C71.1398 46.2594 70.9961 46.6222 70.9961 46.9992C70.9961 47.3762 71.1398 47.739 71.3979 48.0138C73.2031 49.615 74.6363 51.5916 75.5973 53.805C76.5583 56.0185 77.0238 58.4153 76.9611 60.8275C76.8629 62.8581 76.332 64.8443 75.404 66.6531C74.4761 68.4619 73.1724 70.0516 71.5803 71.3157C71.2913 71.5491 71.1004 71.8824 71.0455 72.2498C70.9906 72.6171 71.0757 72.9917 71.2839 73.2993C71.3973 73.4719 71.5454 73.6188 71.7189 73.7307C71.8924 73.8427 72.0873 73.917 72.2913 73.9492C72.4952 73.9814 72.7035 73.9707 72.903 73.9176C73.1025 73.8646 73.2889 73.7705 73.4499 73.6413C75.377 72.1146 76.9557 70.1939 78.0803 68.0076C79.2049 65.8213 79.8494 63.4199 79.9708 60.9643C80.0916 58.0137 79.5135 55.0763 78.2836 52.3915L78.4887 52.4371Z" fill="white"/>
<path d="M67.2019 54.4236C66.9795 54.6459 66.8437 54.9401 66.8186 55.2534C66.7936 55.5668 66.8809 55.8788 67.0651 56.1336C67.8004 57.1995 68.1942 58.464 68.1942 59.7589C68.1942 61.0539 67.8004 62.3182 67.0651 63.3841C66.8779 63.6335 66.7885 63.9429 66.8138 64.2537C66.839 64.5645 66.977 64.8553 67.2019 65.0713C67.3372 65.2066 67.5003 65.311 67.6799 65.3772C67.8595 65.4433 68.0512 65.4697 68.242 65.4545C68.4327 65.4394 68.618 65.3831 68.7848 65.2893C68.9517 65.1956 69.0961 65.0667 69.2083 64.9117C70.276 63.397 70.8492 61.5893 70.8492 59.7361C70.8492 57.8829 70.276 56.0751 69.2083 54.5604C69.0979 54.4038 68.9548 54.2731 68.7889 54.1773C68.6229 54.0815 68.4381 54.0228 68.2473 54.0054C68.0564 53.9881 67.8642 54.0125 67.6837 54.0768C67.5032 54.1411 67.3387 54.2438 67.2019 54.378V54.4236Z" fill="white"/>
<path d="M22.5026 76.7305L22.2404 76.1016C21.9954 75.5139 21.697 75.122 21.3451 74.9262C20.9892 74.732 20.5892 74.7274 20.1453 74.9125C19.6973 75.0993 19.4178 75.3605 19.3069 75.6962C19.1943 76.0279 19.2467 76.4547 19.4644 76.9767L19.8268 77.846L22.5026 76.7305ZM19.273 73.011C20.2431 72.6066 21.1118 72.6015 21.8792 72.9956C22.6448 73.3857 23.2607 74.1397 23.7268 75.2577L24.0686 76.0777L27.2747 74.7412L28.0714 76.6525L19.0575 80.4101L17.8572 77.5309C17.4014 76.4375 17.2916 75.5087 17.5279 74.7444C17.7583 73.9778 18.34 73.3999 19.273 73.011Z" fill="white"/>
<path d="M25.0593 68.7969L15.6011 71.2288L15.0854 69.2234L24.5436 66.7914L25.0593 68.7969Z" fill="white"/>
<path d="M23.6864 57.2195C23.6952 58.0968 23.3836 58.788 22.7518 59.2931L22.7529 59.4C23.3756 59.3225 23.736 59.2833 23.8339 59.2823L26.8599 59.2521L26.8802 61.2894L16.1258 61.3969L16.1093 59.7404L17.075 59.4434L17.074 59.3499C16.33 58.8808 15.9534 58.1787 15.944 57.2435C15.9352 56.3618 16.269 55.6681 16.9453 55.1626C17.6217 54.657 18.5655 54.3982 19.7767 54.3861C20.5738 54.3781 21.2675 54.4892 21.8577 54.7193C22.4478 54.945 22.8987 55.2723 23.2103 55.7012C23.5218 56.1301 23.6806 56.6362 23.6864 57.2195ZM17.5804 57.8818C17.5855 58.3851 17.745 58.7509 18.059 58.9793C18.3686 59.2078 18.8797 59.323 19.5923 59.3247L19.8127 59.3225C20.6143 59.3145 21.1876 59.1908 21.5326 58.9513C21.8775 58.7073 22.0474 58.3271 22.0422 57.8105C22.0331 56.8976 21.276 56.4487 19.7708 56.4637C19.036 56.4711 18.4872 56.5901 18.1243 56.8209C17.7569 57.0473 17.5756 57.4009 17.5804 57.8818Z" fill="white"/>
<path d="M24.859 48.3758L23.7795 48.5144L23.7667 48.5663C24.1034 49.0025 24.31 49.4181 24.3865 49.8129C24.4598 50.2023 24.4264 50.68 24.2864 51.2458C24.1143 51.9413 23.7799 52.4407 23.2831 52.7441C22.7874 53.0432 22.1723 53.1019 21.438 52.9202C20.6691 52.7299 20.1695 52.3221 19.9392 51.6967C19.7056 51.0659 19.7035 50.2036 19.9329 49.1098L20.2051 47.8432L19.8876 47.7646C19.1532 47.5829 18.6931 47.8679 18.5071 48.6195C18.3639 49.1983 18.3705 49.9219 18.527 50.7903L17.0303 51.1145C16.8003 50.1729 16.8109 49.1945 17.062 48.1794C17.3025 47.2075 17.6985 46.5148 18.2501 46.1012C18.8017 45.6875 19.5094 45.5876 20.3733 45.8014L25.2004 46.9957L24.859 48.3758ZM21.3584 48.1285L21.1951 48.8995C21.0703 49.4783 21.0681 49.9316 21.1887 50.2594C21.3093 50.5872 21.564 50.7992 21.9527 50.8953C22.51 51.0332 22.8677 50.7825 23.0259 50.1432C23.1391 49.6853 23.0977 49.2877 22.9015 48.9504C22.7064 48.6088 22.3908 48.384 21.9545 48.276L21.3584 48.1285Z" fill="white"/>
<path d="M25.5863 41.6857C25.7224 41.3564 25.8136 40.9316 25.86 40.4111L27.2614 40.9901C27.2774 41.5461 27.1443 42.1656 26.862 42.8488C26.5508 43.602 26.1345 44.0732 25.613 44.2625C25.0891 44.4459 24.4464 44.3803 23.685 44.0657L20.3575 42.6908L19.9851 43.5922L19.1887 43.2631L18.9875 41.9658L17.755 40.8205L18.2525 39.6167L19.7218 40.2238L20.5202 38.2915L21.9339 38.8756L21.1355 40.8079L24.463 42.1828C24.7305 42.2934 24.9587 42.3009 25.1475 42.2055C25.338 42.1059 25.4843 41.9326 25.5863 41.6857Z" fill="white"/>
<path d="M19.8644 35.5763C19.2805 35.2644 19.1623 34.7832 19.5097 34.1327C19.8571 33.4822 20.3228 33.3129 20.9067 33.6247C21.185 33.7733 21.3585 33.9718 21.4273 34.2201C21.4944 34.4624 21.441 34.7462 21.2673 35.0714C20.9199 35.722 20.4522 35.8902 19.8644 35.5763ZM29.1334 38.1243L28.1758 39.9171L21.604 36.4072L22.5616 34.6143L29.1334 38.1243Z" fill="white"/>
<path d="M27.2507 30.0964C26.9742 30.429 26.8639 30.7779 26.9197 31.1432C26.9722 31.5057 27.1807 31.8616 27.5454 32.2111L29.3751 30.0097C28.9819 29.6945 28.5995 29.5477 28.2279 29.5693C27.8529 29.5881 27.5271 29.7638 27.2507 30.0964ZM32.2796 33.9023C31.5101 34.8281 30.6533 35.3393 29.7091 35.4358C28.765 35.5324 27.8249 35.1916 26.8888 34.4136C25.9253 33.6127 25.3807 32.7542 25.2551 31.8381C25.1289 30.9157 25.4192 30.0294 26.126 29.179C26.8014 28.3663 27.5587 27.9261 28.3978 27.8582C29.237 27.7903 30.0646 28.0955 30.8806 28.7739L31.6419 29.4066L28.5596 33.115C29.0196 33.4683 29.4773 33.6256 29.9329 33.5868C30.3884 33.5479 30.8014 33.3056 31.1719 32.8599C31.4597 32.5135 31.6959 32.1562 31.8804 31.7877C32.0649 31.4192 32.2179 31.0014 32.3395 30.5343L33.5533 31.5432C33.4625 31.9315 33.32 32.3088 33.1258 32.675C32.935 33.044 32.6529 33.4531 32.2796 33.9023Z" fill="white"/>
<path d="M40.4244 26.0742L38.8433 27.3591L36.0924 23.974C35.7526 23.5559 35.4241 23.3035 35.107 23.2169C34.7871 23.1269 34.4647 23.2138 34.1398 23.4778C33.6975 23.8373 33.4986 24.2457 33.5431 24.703C33.5849 25.1568 33.8838 25.7259 34.4398 26.4102L36.6558 29.1368L35.0747 30.4217L30.3648 24.6262L31.5727 23.6447L32.3876 24.2132L32.4757 24.1416C32.4245 23.7185 32.4951 23.311 32.6875 22.9194C32.8806 22.5215 33.1741 22.1624 33.5681 21.8423C34.242 21.2946 34.9023 21.0621 35.549 21.1448C36.193 21.224 36.7944 21.6075 37.3533 22.2952L40.4244 26.0742Z" fill="white"/>
<path d="M44.1188 22.374C44.433 22.2062 44.7734 21.9361 45.14 21.5637L45.8542 22.9013C45.5133 23.3407 45.0169 23.7346 44.3648 24.0827C43.6459 24.4666 43.025 24.5659 42.5021 24.3807C41.9809 24.1895 41.5264 23.7305 41.1383 23.0037L39.4425 19.8277L38.5822 20.2871L38.1764 19.527L38.8454 18.3974L38.6214 16.7299L39.7704 16.1164L40.5192 17.5188L42.3635 16.534L43.084 17.8834L41.2397 18.8681L42.9355 22.0441C43.0719 22.2995 43.2432 22.4503 43.4497 22.4965C43.66 22.5407 43.8831 22.4999 44.1188 22.374Z" fill="white"/>
<path d="M53.3649 20.7253C51.1136 21.3042 49.6702 20.358 49.0347 17.8867C48.7187 16.6575 48.7837 15.6408 49.2298 14.8364C49.6748 14.0276 50.4687 13.4763 51.6116 13.1825C52.4483 12.9673 53.2409 12.9383 53.9894 13.0952L53.7997 14.7717C53.457 14.7265 53.142 14.6994 52.8546 14.6906C52.5662 14.6774 52.2882 14.7052 52.0208 14.7739C50.9944 15.0378 50.6685 15.8987 51.0434 17.3564C51.4071 18.7711 52.1022 19.3464 53.1287 19.0825C53.5082 18.9849 53.847 18.8449 54.1449 18.6625C54.4418 18.4759 54.7242 18.2331 54.9922 17.9343L55.4264 19.6228C55.1593 19.9076 54.8719 20.1309 54.5641 20.2928C54.2606 20.4536 53.8609 20.5978 53.3649 20.7253Z" fill="white"/>
<path d="M58.3919 15.9626C58.4362 16.7019 58.59 17.2535 58.8532 17.6176C59.1208 17.9814 59.5285 18.1469 60.0762 18.1141C60.6195 18.0815 60.9979 17.8711 61.2115 17.4828C61.4293 17.0899 61.5158 16.5216 61.4712 15.7779C61.4269 15.0387 61.2734 14.4915 61.0107 14.1363C60.7481 13.7811 60.3429 13.6199 59.7951 13.6528C59.2519 13.6854 58.8711 13.8937 58.6528 14.2777C58.4342 14.6573 58.3472 15.219 58.3919 15.9626ZM63.5553 15.6528C63.6283 16.8686 63.3647 17.8385 62.7646 18.5628C62.1644 19.2871 61.2922 19.6835 60.1477 19.7522C59.4307 19.7952 58.789 19.6773 58.2226 19.3984C57.6559 19.1151 57.2079 18.6884 56.8788 18.1182C56.5496 17.548 56.3615 16.8711 56.3144 16.0873C56.2412 14.8671 56.5027 13.8995 57.0989 13.1844C57.6951 12.4693 58.5699 12.0772 59.7233 12.008C60.4402 11.9649 61.0819 12.0829 61.6484 12.3617C62.2148 12.6406 62.6625 13.0629 62.9914 13.6286C63.3203 14.1943 63.5083 14.8691 63.5553 15.6528Z" fill="white"/>
<path d="M71.9448 20.7383L69.944 20.3541L70.7666 16.0704C70.8682 15.5413 70.8502 15.1274 70.7125 14.8289C70.5757 14.526 70.3017 14.3351 69.8906 14.2562C69.3309 14.1487 68.8902 14.2591 68.5687 14.5873C68.2481 14.9112 68.0046 15.5061 67.8383 16.372L67.1757 19.8225L65.175 19.4383L66.5833 12.1043L68.1117 12.3978L68.2006 13.3875L68.3121 13.4089C68.6031 13.0975 68.9605 12.8895 69.3842 12.785C69.813 12.6769 70.2767 12.6707 70.7753 12.7664C71.6281 12.9302 72.2308 13.2863 72.5835 13.8346C72.937 14.3787 73.0302 15.0858 72.8631 15.9561L71.9448 20.7383Z" fill="white"/>
<path d="M75.3695 21.8659L75.5915 13.8772L77.5608 14.6909L77.2694 19.1745C77.2118 19.7337 77.1097 20.2432 76.9631 20.703L77.0001 20.7183C77.1839 20.3317 77.4713 19.8987 77.8621 19.4193L80.8143 16.0352L82.7836 16.849L77.3019 22.6643L75.3695 21.8659Z" fill="white"/>
<path d="M86.7136 20.7332C86.3551 20.4913 85.9969 20.4164 85.639 20.5084C85.2836 20.5967 84.9502 20.8397 84.6388 21.2374L87.0117 22.8384C87.2861 22.4158 87.3941 22.0206 87.3355 21.653C87.2794 21.2817 87.0721 20.9751 86.7136 20.7332ZM83.4283 26.1167C82.4303 25.4434 81.8362 24.6418 81.646 23.7121C81.4558 22.7823 81.701 21.8129 82.3818 20.8038C83.0826 19.7652 83.8825 19.1377 84.7815 18.9213C85.6867 18.7038 86.5976 18.9042 87.5142 19.5227C88.3902 20.1137 88.9038 20.8233 89.0551 21.6514C89.2063 22.4796 88.9851 23.3335 88.3916 24.2132L87.838 25.0337L83.8406 22.3367C83.5349 22.8297 83.4241 23.3008 83.5082 23.7502C83.5923 24.1996 83.8746 24.5864 84.355 24.9105C84.7284 25.1624 85.1075 25.3618 85.4925 25.5086C85.8776 25.6554 86.3085 25.766 86.7855 25.8404L85.9027 27.1488C85.5072 27.0971 85.1177 26.993 84.7339 26.8363C84.3477 26.6832 83.9125 26.4434 83.4283 26.1167Z" fill="white"/>
<path d="M95.3075 25.8741C95.511 26.0607 95.6665 26.2305 95.774 26.3834L94.3696 27.6876C94.2782 27.5435 94.1456 27.3916 93.9716 27.2321C93.4924 26.7927 93.0054 26.5727 92.5105 26.572C92.019 26.5744 91.57 26.7972 91.1637 27.2402L88.595 30.0416L87.0934 28.6647L92.1406 23.1605L93.2779 24.2033L92.6507 25.332L92.7245 25.3997C93.1781 25.2477 93.6351 25.2106 94.0955 25.2884C94.5621 25.3659 94.9662 25.5611 95.3075 25.8741Z" fill="white"/>
<path d="M96.2611 35.7262C95.6407 36.1781 95.0105 36.3059 94.3706 36.1095C93.7333 35.9167 93.102 35.3911 92.4767 34.5326C92.1562 34.0925 91.9136 33.6951 91.7489 33.3402C91.5807 32.9879 91.4558 32.6345 91.3741 32.2799L92.7376 31.2868C92.8167 31.6985 92.9467 32.131 93.1278 32.5842C93.3116 33.0411 93.5099 33.4157 93.7227 33.7078C94.1588 34.3066 94.55 34.4799 94.8963 34.2277C95.0262 34.1331 95.1019 34.0172 95.1234 33.88C95.1486 33.7403 95.1407 33.5362 95.0998 33.2678C95.0626 32.9969 94.9942 32.6491 94.8948 32.2247C94.7507 31.6175 94.6814 31.1434 94.6871 30.8025C94.6954 30.4653 94.7691 30.1686 94.9084 29.9126C95.0539 29.6576 95.2835 29.4158 95.5973 29.1872C96.1348 28.7957 96.7007 28.701 97.295 28.903C97.8956 29.1059 98.4743 29.5898 99.0313 30.3545C99.5621 31.0831 99.9196 31.9075 100.104 32.8277L98.5511 33.1969C98.4603 32.7993 98.3605 32.4387 98.2516 32.1149C98.1428 31.7912 97.9885 31.4922 97.7888 31.2181C97.4341 30.7311 97.1251 30.5836 96.8618 30.7754C96.7139 30.8831 96.6424 31.0539 96.6471 31.2878C96.6545 31.5254 96.7449 31.9868 96.9183 32.672C97.0713 33.2838 97.145 33.7601 97.1394 34.101C97.1337 34.4419 97.0608 34.7435 96.9205 35.0057C96.7803 35.268 96.5605 35.5081 96.2611 35.7262Z" fill="white"/>
<path d="M97.3409 42.3869L98.0894 41.5957L98.0665 41.5474C97.5293 41.4227 97.106 41.2316 96.7966 40.9742C96.4932 40.7188 96.2165 40.3276 95.9666 39.8005C95.6594 39.1527 95.6022 38.5539 95.7949 38.0042C95.9895 37.4585 96.4289 37.0234 97.1129 36.6991C97.8291 36.3594 98.4745 36.359 99.0491 36.6976C99.6296 37.0384 100.177 37.7052 100.693 38.698L101.284 39.8517L101.58 39.7114C102.264 39.3871 102.44 38.8748 102.108 38.1747C101.852 37.6355 101.389 37.0791 100.717 36.5053L101.672 35.3062C102.446 35.89 103.058 36.6548 103.506 37.6003C103.936 38.5057 104.067 39.2932 103.902 39.9631C103.737 40.6329 103.252 41.1586 102.447 41.5402L97.9505 43.6724L97.3409 42.3869ZM100.21 40.3611L99.8478 39.6604C99.578 39.1329 99.2925 38.7803 98.9915 38.6027C98.6904 38.4251 98.3588 38.4222 97.9967 38.5939C97.4776 38.84 97.3593 39.2609 97.6416 39.8564C97.8439 40.2829 98.1278 40.5647 98.4935 40.7018C98.8611 40.8429 99.248 40.8171 99.6544 40.6244L100.21 40.3611Z" fill="white"/>
<path d="M100.938 48.0466C101.043 48.387 101.244 48.7725 101.54 49.2031L100.091 49.6504C99.7243 49.2324 99.4318 48.6702 99.2137 47.9639C98.9733 47.1852 98.9936 46.5568 99.2747 46.0785C99.5614 45.6031 100.098 45.2439 100.885 45.0008L104.326 43.9386L104.038 43.0067L104.861 42.7525L105.843 43.6237L107.523 43.7203L107.907 44.9648L106.388 45.4339L107.005 47.4316L105.544 47.8829L104.927 45.8852L101.487 46.9475C101.21 47.0329 101.029 47.1725 100.945 47.3664C100.861 47.5646 100.859 47.7913 100.938 48.0466Z" fill="white"/>
<path d="M109.331 49.4676C109.986 49.3649 110.371 49.6788 110.486 50.4091C110.6 51.1394 110.329 51.5559 109.674 51.6586C109.361 51.7075 109.103 51.6533 108.898 51.4961C108.698 51.3426 108.57 51.0833 108.512 50.7181C108.398 49.9878 108.671 49.5709 109.331 49.4676ZM100.374 53.0202L100.059 51.0074L107.437 49.852L107.752 51.8648L100.374 53.0202Z" fill="white"/>
<path d="M104.451 56.5447C103.712 56.5521 103.154 56.6779 102.778 56.9222C102.402 57.1709 102.217 57.5691 102.222 58.1169C102.228 58.6601 102.418 59.0479 102.795 59.2802C103.176 59.5169 103.738 59.6315 104.482 59.6241C105.221 59.6167 105.774 59.4909 106.141 59.2467C106.509 59.0026 106.69 58.6066 106.684 58.0589C106.679 57.5156 106.49 57.1256 106.118 56.8888C105.75 56.652 105.195 56.5373 104.451 56.5447ZM104.503 61.7082C103.287 61.7203 102.333 61.4092 101.641 60.7748C100.949 60.1404 100.597 59.251 100.585 58.1065C100.578 57.3895 100.728 56.7556 101.034 56.2048C101.345 55.6539 101.792 55.2285 102.377 54.9287C102.962 54.6289 103.646 54.4751 104.43 54.4673C105.65 54.4551 106.602 54.764 107.285 55.394C107.969 56.0241 108.316 56.9158 108.328 58.0692C108.335 58.7861 108.185 59.42 107.879 59.9709C107.573 60.5217 107.129 60.947 106.549 61.2468C105.969 61.5465 105.286 61.7003 104.503 61.7082Z" fill="white"/>
<path d="M98.9529 69.8043L99.4419 67.8281L103.673 68.8749C104.196 69.0043 104.609 69.0081 104.915 68.8865C105.224 68.7659 105.429 68.5027 105.529 68.0966C105.666 67.5437 105.579 67.0982 105.269 66.7601C104.963 66.423 104.382 66.1487 103.527 65.937L100.118 65.0938L100.607 63.1176L107.851 64.9099L107.478 66.4196L106.485 66.456L106.458 66.5661C106.754 66.873 106.942 67.2406 107.024 67.6688C107.11 68.1025 107.091 68.5655 106.969 69.058C106.761 69.9003 106.374 70.4829 105.808 70.8059C105.247 71.13 104.536 71.1857 103.676 70.973L98.9529 69.8043Z" fill="white"/>
</g>
<defs>
<filter id="filter0_dd_396_344" x="0" y="0" width="124.281" height="124.281" filterUnits="userSpaceOnUse" color-interpolation-filters="sRGB">
<feFlood flood-opacity="0" result="BackgroundImageFix"/>
<feColorMatrix in="SourceAlpha" type="matrix" values="0 0 0 0 0 0 0 0 0 0 0 0 0 0 0 0 0 0 127 0" result="hardAlpha"/>
<feOffset dy="4"/>
<feGaussianBlur stdDeviation="2"/>
<feComposite in2="hardAlpha" operator="out"/>
<feColorMatrix type="matrix" values="0 0 0 0 0 0 0 0 0 0 0 0 0 0 0 0 0 0 0.25 0"/>
<feBlend mode="normal" in2="BackgroundImageFix" result="effect1_dropShadow_396_344"/>
<feColorMatrix in="SourceAlpha" type="matrix" values="0 0 0 0 0 0 0 0 0 0 0 0 0 0 0 0 0 0 127 0" result="hardAlpha"/>
<feOffset dy="4"/>
<feGaussianBlur stdDeviation="2"/>
<feComposite in2="hardAlpha" operator="out"/>
<feColorMatrix type="matrix" values="0 0 0 0 0 0 0 0 0 0 0 0 0 0 0 0 0 0 0.25 0"/>
<feBlend mode="normal" in2="effect1_dropShadow_396_344" result="effect2_dropShadow_396_344"/>
<feBlend mode="normal" in="SourceGraphic" in2="effect2_dropShadow_396_344" result="shape"/>
</filter>
</defs>
</svg>
