<svg width="24" height="24" viewBox="0 0 24 24" fill="none" xmlns="http://www.w3.org/2000/svg">
<path d="M23.3684 8H0.631579C0.277895 8 0 8.33846 0 8.76923V15.2308C0 15.6615 0.277895 16 0.631579 16H23.3684C23.7221 16 24 15.6615 24 15.2308V8.76923C24 8.33846 23.7221 8 23.3684 8ZM4.85053 11.3538L3.23368 13.4462C3.15789 13.5692 3.03158 13.6308 2.88 13.6308C2.75368 13.6308 2.62737 13.5692 2.52632 13.4462L1.69263 12.3385C1.51579 12.0923 1.51579 11.7231 1.71789 11.5077C1.92 11.2923 2.22316 11.2923 2.4 11.5385L2.90526 12.1846L4.16842 10.5538C4.34526 10.3077 4.64842 10.3077 4.85053 10.5231C5.02737 10.7385 5.05263 11.1077 4.85053 11.3538ZM22.7368 14.4615H6.56842V9.53846H22.7621V14.4615H22.7368Z" fill="white"/>
<path d="M0.621469 7.2H16.9785C17.3266 7.2 17.6 6.89538 17.6 6.50769V0.692308C17.6 0.304615 17.3266 0 16.9785 0H0.621469C0.273446 0 0 0.304615 0 0.692308V6.48C0 6.86769 0.273446 7.2 0.621469 7.2ZM6.43842 1.38462H16.3571V5.81538H6.43842V1.38462Z" fill="white"/>
<path d="M12.9885 16.8H0.611511C0.269065 16.8 0 17.1058 0 17.495V23.305C0 23.6942 0.269065 24 0.611511 24H12.9885C13.3309 24 13.6 23.6942 13.6 23.305V17.495C13.6 17.1336 13.3309 16.8 12.9885 16.8ZM12.377 22.6378H6.33525V18.1899H12.377V22.6378V22.6378Z" fill="white"/>
</svg>
