<svg width="28" height="28" viewBox="0 0 28 28" fill="none" xmlns="http://www.w3.org/2000/svg">
<circle cx="14" cy="14" r="14" fill="white"/>
<path d="M12.7598 16.9961C12.7728 16.2214 12.8607 15.6094 13.0234 15.1602C13.1862 14.7109 13.5182 14.2129 14.0195 13.666L15.2988 12.3477C15.8457 11.7292 16.1191 11.0651 16.1191 10.3555C16.1191 9.67188 15.9401 9.13802 15.582 8.75391C15.224 8.36328 14.7031 8.16797 14.0195 8.16797C13.3555 8.16797 12.8216 8.34375 12.418 8.69531C12.0143 9.04688 11.8125 9.51888 11.8125 10.1113H10.0059C10.0189 9.05664 10.3932 8.20703 11.1289 7.5625C11.8711 6.91146 12.8346 6.58594 14.0195 6.58594C15.25 6.58594 16.207 6.91797 16.8906 7.58203C17.5807 8.23958 17.9258 9.14453 17.9258 10.2969C17.9258 11.4362 17.3984 12.5592 16.3438 13.666L15.2793 14.7207C14.804 15.248 14.5664 16.0065 14.5664 16.9961H12.7598ZM12.6816 20.0918C12.6816 19.7988 12.7695 19.5547 12.9453 19.3594C13.1276 19.1576 13.3945 19.0566 13.7461 19.0566C14.0977 19.0566 14.3646 19.1576 14.5469 19.3594C14.7292 19.5547 14.8203 19.7988 14.8203 20.0918C14.8203 20.3848 14.7292 20.6289 14.5469 20.8242C14.3646 21.013 14.0977 21.1074 13.7461 21.1074C13.3945 21.1074 13.1276 21.013 12.9453 20.8242C12.7695 20.6289 12.6816 20.3848 12.6816 20.0918Z" fill="black"/>
</svg>
