<svg width="20" height="22" viewBox="0 0 20 22" fill="none" xmlns="http://www.w3.org/2000/svg">
<path fill-rule="evenodd" clip-rule="evenodd" d="M5.83333 0V1.69232H14.1667V0H15.8333V1.69232H16.4282C16.8286 1.69232 17.2225 1.76007 17.5944 1.89062C18.1014 2.06909 18.5677 2.36163 18.9543 2.75494C19.624 3.4342 20 4.35638 20 5.31824V18.3741C20 19.3359 19.624 20.2581 18.9543 20.9374C18.2845 21.6182 17.3755 22 16.4282 22H3.57178C2.62451 22 1.7155 21.6182 1.04573 20.9374C0.375977 20.2581 0 19.3359 0 18.3741V5.31824C0 4.86707 0.0821953 4.42578 0.238445 4.01428C0.415852 3.54657 0.689289 3.11688 1.04573 2.75494C1.7155 2.0741 2.62451 1.69232 3.57178 1.69232H4.16667V0H5.83333ZM14.1667 3.14331V4.23077H15.8333V3.14331H16.4282C16.6545 3.14331 16.8766 3.17969 17.0874 3.24908C17.4072 3.35321 17.7018 3.53333 17.9435 3.7796C18.3455 4.18781 18.5718 4.74146 18.5718 5.31824V8.46155H1.42822V5.31824C1.42822 4.74146 1.65446 4.18781 2.05648 3.7796C2.45768 3.3714 3.00293 3.14331 3.57178 3.14331H4.16667V4.23077H5.83333V3.14331H14.1667ZM18.5718 10.1539V18.3741C18.5718 18.9509 18.3455 19.5045 17.9435 19.9127C17.5423 20.3209 16.9971 20.549 16.4282 20.549H3.57178C3.00293 20.549 2.45768 20.3209 2.05648 19.9127C1.65446 19.5045 1.42822 18.9509 1.42822 18.3741V10.1539H18.5718Z" fill="white"/>
</svg>
