<svg width="177" height="83" viewBox="0 0 177 83" fill="none" xmlns="http://www.w3.org/2000/svg">
<g filter="url(#filter0_d)">
<rect x="14" y="10" width="149" height="55" rx="27.5" fill="#EA7E33"/>
</g>
<path d="M56.0688 33.7184C55.0896 33.7184 54.3314 34.0877 53.7943 34.8263C53.2571 35.5593 52.9885 36.5832 52.9885 37.8982C52.9885 40.6343 54.0153 42.0024 56.0688 42.0024C56.9305 42.0024 57.9741 41.787 59.1995 41.3562V43.5384C58.1923 43.958 57.0676 44.1679 55.8254 44.1679C54.0405 44.1679 52.6752 43.6279 51.7296 42.548C50.7839 41.4625 50.3111 39.9069 50.3111 37.8814C50.3111 36.6056 50.5433 35.4893 51.0078 34.5325C51.4722 33.5701 52.138 32.8343 53.0053 32.3251C53.8782 31.8103 54.8994 31.5529 56.0688 31.5529C57.2607 31.5529 58.4581 31.8411 59.6611 32.4174L58.8218 34.5325C58.363 34.3143 57.9013 34.124 57.4369 33.9618C56.9725 33.7995 56.5165 33.7184 56.0688 33.7184ZM63.6562 39.2914C63.6562 40.2203 63.8073 40.9225 64.1095 41.3981C64.4172 41.8737 64.9152 42.1115 65.6035 42.1115C66.2861 42.1115 66.7757 41.8765 67.0723 41.4065C67.3744 40.9309 67.5255 40.2259 67.5255 39.2914C67.5255 38.3626 67.3744 37.666 67.0723 37.2015C66.7701 36.7371 66.2749 36.5049 65.5867 36.5049C64.904 36.5049 64.4116 36.7371 64.1095 37.2015C63.8073 37.6604 63.6562 38.357 63.6562 39.2914ZM70.1442 39.2914C70.1442 40.819 69.7413 42.0136 68.9355 42.8753C68.1298 43.737 67.0079 44.1679 65.5699 44.1679C64.669 44.1679 63.8745 43.972 63.1862 43.5803C62.498 43.1831 61.9692 42.6151 61.5999 41.8765C61.2306 41.1379 61.046 40.2762 61.046 39.2914C61.046 37.7583 61.446 36.5665 62.2462 35.716C63.0463 34.8654 64.171 34.4402 65.6202 34.4402C66.5211 34.4402 67.3157 34.636 68.0039 35.0277C68.6921 35.4194 69.2209 35.9817 69.5902 36.7147C69.9595 37.4477 70.1442 38.3066 70.1442 39.2914ZM80.921 44H78.3611V38.5193C78.3611 37.8422 78.2408 37.3358 78.0002 37.0001C77.7596 36.6588 77.3763 36.4881 76.8503 36.4881C76.1341 36.4881 75.6165 36.7287 75.2976 37.2099C74.9786 37.6855 74.8192 38.4773 74.8192 39.5852V44H72.2592V34.6164H74.2148L74.559 35.8167H74.7016C74.987 35.3634 75.3787 35.0221 75.8767 34.7927C76.3803 34.5577 76.951 34.4402 77.5889 34.4402C78.68 34.4402 79.5081 34.7368 80.0733 35.3299C80.6384 35.9174 80.921 36.7679 80.921 37.8814V44ZM87.5096 42.1283C87.9572 42.1283 88.4944 42.0304 89.1211 41.8346V43.7398C88.4832 44.0252 87.6999 44.1679 86.771 44.1679C85.747 44.1679 85.0001 43.9105 84.53 43.3957C84.0656 42.8753 83.8334 42.0976 83.8334 41.0624V36.5385H82.608V35.4558L84.0181 34.5997L84.7567 32.6189H86.3933V34.6164H89.0204V36.5385H86.3933V41.0624C86.3933 41.4261 86.494 41.6947 86.6955 41.8681C86.9025 42.0416 87.1739 42.1283 87.5096 42.1283ZM90.9172 32.1908C90.9172 31.3571 91.3816 30.9402 92.3105 30.9402C93.2393 30.9402 93.7038 31.3571 93.7038 32.1908C93.7038 32.5881 93.5863 32.8986 93.3512 33.1225C93.1218 33.3407 92.7749 33.4498 92.3105 33.4498C91.3816 33.4498 90.9172 33.0301 90.9172 32.1908ZM93.5863 44H91.0263V34.6164H93.5863V44ZM104.942 44H102.382V38.5193C102.382 37.8422 102.262 37.3358 102.021 37.0001C101.781 36.6588 101.397 36.4881 100.872 36.4881C100.155 36.4881 99.6377 36.7287 99.3188 37.2099C98.9998 37.6855 98.8404 38.4773 98.8404 39.5852V44H96.2805V34.6164H98.2361L98.5802 35.8167H98.7229C99.0082 35.3634 99.3999 35.0221 99.8979 34.7927C100.402 34.5577 100.972 34.4402 101.61 34.4402C102.701 34.4402 103.529 34.7368 104.094 35.3299C104.66 35.9174 104.942 36.7679 104.942 37.8814V44ZM114.225 44L113.881 42.7998H113.747C113.472 43.2362 113.084 43.5747 112.58 43.8154C112.076 44.0504 111.503 44.1679 110.859 44.1679C109.757 44.1679 108.926 43.8741 108.367 43.2866C107.807 42.6935 107.527 41.843 107.527 40.7351V34.6164H110.087V40.0972C110.087 40.7742 110.208 41.2834 110.448 41.6247C110.689 41.9605 111.072 42.1283 111.598 42.1283C112.314 42.1283 112.832 41.8905 113.151 41.4149C113.47 40.9337 113.629 40.1391 113.629 39.0312V34.6164H116.189V44H114.225ZM122.761 36.2615C122.218 36.2615 121.793 36.435 121.485 36.7819C121.177 37.1232 121.001 37.61 120.956 38.2423H124.549C124.537 37.61 124.372 37.1232 124.053 36.7819C123.734 36.435 123.304 36.2615 122.761 36.2615ZM123.122 44.1679C121.611 44.1679 120.43 43.751 119.58 42.9173C118.729 42.0836 118.304 40.9029 118.304 39.3754C118.304 37.8031 118.696 36.5888 119.479 35.7327C120.268 34.871 121.356 34.4402 122.744 34.4402C124.07 34.4402 125.103 34.8179 125.841 35.5733C126.58 36.3287 126.949 37.3722 126.949 38.7039V39.9461H120.898C120.926 40.6735 121.141 41.2414 121.544 41.6499C121.947 42.0584 122.512 42.2626 123.239 42.2626C123.804 42.2626 124.339 42.2039 124.842 42.0864C125.346 41.9689 125.872 41.7814 126.42 41.524V43.5048C125.973 43.7286 125.494 43.8937 124.985 44C124.476 44.1119 123.855 44.1679 123.122 44.1679Z" fill="white"/>
<defs>
<filter id="filter0_d" x="0" y="0" width="177" height="83" filterUnits="userSpaceOnUse" color-interpolation-filters="sRGB">
<feFlood flood-opacity="0" result="BackgroundImageFix"/>
<feColorMatrix in="SourceAlpha" type="matrix" values="0 0 0 0 0 0 0 0 0 0 0 0 0 0 0 0 0 0 127 0" result="hardAlpha"/>
<feOffset dy="4"/>
<feGaussianBlur stdDeviation="7"/>
<feColorMatrix type="matrix" values="0 0 0 0 0 0 0 0 0 0 0 0 0 0 0 0 0 0 0.25 0"/>
<feBlend mode="normal" in2="BackgroundImageFix" result="effect1_dropShadow"/>
<feBlend mode="normal" in="SourceGraphic" in2="effect1_dropShadow" result="shape"/>
</filter>
</defs>
</svg>
