<svg width="133" height="73" viewBox="0 0 133 73" fill="none" xmlns="http://www.w3.org/2000/svg">
<g filter="url(#filter0_d)">
<rect x="14" y="10" width="104.727" height="45" rx="22.5" fill="#DA7516"/>
</g>
<path d="M51.7931 39H44.7261V26.7292H51.7931V28.8611H47.328V31.5553H51.4826V33.6871H47.328V36.8514H51.7931V39ZM62.8217 39H60.2618V33.5193C60.2618 32.8422 60.1415 32.3358 59.9009 32.0001C59.6603 31.6588 59.277 31.4881 58.751 31.4881C58.0348 31.4881 57.5172 31.7287 57.1983 32.2099C56.8794 32.6855 56.7199 33.4773 56.7199 34.5852V39H54.16V29.6164H56.1156L56.4597 30.8167H56.6024C56.8878 30.3634 57.2794 30.0221 57.7774 29.7927C58.281 29.5577 58.8518 29.4402 59.4896 29.4402C60.5807 29.4402 61.4089 29.7368 61.974 30.3299C62.5392 30.9174 62.8217 31.7679 62.8217 32.8814V39ZM69.4104 37.1283C69.858 37.1283 70.3952 37.0304 71.0218 36.8346V38.7398C70.384 39.0252 69.6006 39.1679 68.6718 39.1679C67.6478 39.1679 66.9008 38.9105 66.4308 38.3957C65.9664 37.8753 65.7341 37.0976 65.7341 36.0624V31.5385H64.5087V30.4558L65.9188 29.5997L66.6574 27.6189H68.2941V29.6164H70.9211V31.5385H68.2941V36.0624C68.2941 36.4261 68.3948 36.6947 68.5962 36.8681C68.8032 37.0416 69.0746 37.1283 69.4104 37.1283ZM76.8131 31.2615C76.2704 31.2615 75.8451 31.435 75.5374 31.7819C75.2296 32.1232 75.0534 32.61 75.0086 33.2423H78.6009C78.5897 32.61 78.4246 32.1232 78.1057 31.7819C77.7867 31.435 77.3559 31.2615 76.8131 31.2615ZM77.174 39.1679C75.6633 39.1679 74.4826 38.751 73.6321 37.9173C72.7816 37.0836 72.3564 35.9029 72.3564 34.3754C72.3564 32.8031 72.748 31.5888 73.5314 30.7327C74.3204 29.871 75.4087 29.4402 76.7963 29.4402C78.1225 29.4402 79.1548 29.8179 79.8934 30.5733C80.632 31.3287 81.0013 32.3722 81.0013 33.7039V34.9461H74.9498C74.9778 35.6735 75.1932 36.2414 75.5961 36.6499C75.999 37.0584 76.5641 37.2626 77.2915 37.2626C77.8567 37.2626 78.391 37.2039 78.8946 37.0864C79.3982 36.9689 79.9242 36.7814 80.4725 36.524V38.5048C80.0249 38.7286 79.5465 38.8937 79.0373 39C78.5281 39.1119 77.907 39.1679 77.174 39.1679ZM88.3201 29.4402C88.6671 29.4402 88.9552 29.4654 89.1846 29.5157L88.9916 31.9162C88.7846 31.8602 88.5328 31.8322 88.2362 31.8322C87.4193 31.8322 86.7814 32.0421 86.3226 32.4617C85.8693 32.8814 85.6427 33.4689 85.6427 34.2243V39H83.0828V29.6164H85.0216L85.3993 31.1944H85.5252C85.8162 30.6684 86.2079 30.2459 86.7003 29.927C87.1983 29.6025 87.7382 29.4402 88.3201 29.4402Z" fill="white"/>
<defs>
<filter id="filter0_d" x="0" y="0" width="132.727" height="73" filterUnits="userSpaceOnUse" color-interpolation-filters="sRGB">
<feFlood flood-opacity="0" result="BackgroundImageFix"/>
<feColorMatrix in="SourceAlpha" type="matrix" values="0 0 0 0 0 0 0 0 0 0 0 0 0 0 0 0 0 0 127 0" result="hardAlpha"/>
<feOffset dy="4"/>
<feGaussianBlur stdDeviation="7"/>
<feColorMatrix type="matrix" values="0 0 0 0 0 0 0 0 0 0 0 0 0 0 0 0 0 0 0.25 0"/>
<feBlend mode="normal" in2="BackgroundImageFix" result="effect1_dropShadow"/>
<feBlend mode="normal" in="SourceGraphic" in2="effect1_dropShadow" result="shape"/>
</filter>
</defs>
</svg>
