<svg width="122" height="41" viewBox="0 0 122 41" fill="none" xmlns="http://www.w3.org/2000/svg">
<mask id="path-1-inside-1" fill="white">
<path fill-rule="evenodd" clip-rule="evenodd" d="M50.8215 0C49.5415 0 48.5039 1.03761 48.5039 2.31757V16.9438C48.5039 18.2237 49.5415 19.2613 50.8215 19.2613H65.998C67.278 19.2613 68.3156 18.2237 68.3156 16.9438V2.31757C68.3156 1.03761 67.278 0 65.998 0H50.8215ZM60.7246 14H61.8019L64.3092 4.62498H63.155L61.6801 10.4026C61.4535 11.2747 61.2996 12.0143 61.2184 12.6213C61.0773 11.7877 60.9042 11.0396 60.699 10.377L58.9356 4.62498H57.7813L56.1012 10.3257C55.8747 11.0738 55.7037 11.839 55.5883 12.6213C55.4942 11.963 55.3446 11.2277 55.1394 10.4154L53.6581 4.62498H52.5039L54.9983 14H56.0756L57.9096 7.76067C58.1148 7.0895 58.2644 6.47177 58.3584 5.90747C58.3627 5.99297 58.4204 6.24733 58.5316 6.67055C58.6427 7.09377 58.7432 7.44432 58.833 7.7222L60.7246 14Z"/>
</mask>
<path fill-rule="evenodd" clip-rule="evenodd" d="M50.8215 0C49.5415 0 48.5039 1.03761 48.5039 2.31757V16.9438C48.5039 18.2237 49.5415 19.2613 50.8215 19.2613H65.998C67.278 19.2613 68.3156 18.2237 68.3156 16.9438V2.31757C68.3156 1.03761 67.278 0 65.998 0H50.8215ZM60.7246 14H61.8019L64.3092 4.62498H63.155L61.6801 10.4026C61.4535 11.2747 61.2996 12.0143 61.2184 12.6213C61.0773 11.7877 60.9042 11.0396 60.699 10.377L58.9356 4.62498H57.7813L56.1012 10.3257C55.8747 11.0738 55.7037 11.839 55.5883 12.6213C55.4942 11.963 55.3446 11.2277 55.1394 10.4154L53.6581 4.62498H52.5039L54.9983 14H56.0756L57.9096 7.76067C58.1148 7.0895 58.2644 6.47177 58.3584 5.90747C58.3627 5.99297 58.4204 6.24733 58.5316 6.67055C58.6427 7.09377 58.7432 7.44432 58.833 7.7222L60.7246 14Z" fill="white"/>
<path d="M61.8019 14V14.8755H62.4741L62.6477 14.2262L61.8019 14ZM60.7246 14L59.8864 14.2526L60.0741 14.8755H60.7246V14ZM64.3092 4.62498L65.155 4.85117L65.4496 3.74946H64.3092V4.62498ZM63.155 4.62498V3.74946H62.4749L62.3066 4.40842L63.155 4.62498ZM61.6801 10.4026L62.5275 10.6228L62.5284 10.6192L61.6801 10.4026ZM61.2184 12.6213L60.3552 12.7674L62.0862 12.7374L61.2184 12.6213ZM60.699 10.377L59.8619 10.6336L59.8627 10.636L60.699 10.377ZM58.9356 4.62498L59.7726 4.36835L59.5829 3.74946H58.9356V4.62498ZM57.7813 4.62498V3.74946H57.1266L56.9415 4.37747L57.7813 4.62498ZM56.1012 10.3257L56.9392 10.5794L56.9411 10.5732L56.1012 10.3257ZM55.5883 12.6213L54.7215 12.7451L56.4544 12.7491L55.5883 12.6213ZM55.1394 10.4154L55.9882 10.201L55.9876 10.1985L55.1394 10.4154ZM53.6581 4.62498L54.5063 4.40799L54.3378 3.74946H53.6581V4.62498ZM52.5039 4.62498V3.74946H51.3649L51.6578 4.85009L52.5039 4.62498ZM54.9983 14L54.1522 14.2251L54.3253 14.8755H54.9983V14ZM56.0756 14V14.8755H56.7308L56.9156 14.2469L56.0756 14ZM57.9096 7.76067L57.0723 7.50468L57.0696 7.51377L57.9096 7.76067ZM58.3584 5.90747L59.2329 5.86375L57.4948 5.76353L58.3584 5.90747ZM58.5316 6.67055L57.6848 6.89294L57.6848 6.89294L58.5316 6.67055ZM58.833 7.7222L59.6712 7.4696L59.6687 7.46129L59.6661 7.45304L58.833 7.7222ZM49.3794 2.31757C49.3794 1.52114 50.0251 0.875515 50.8215 0.875515V-0.875515C49.058 -0.875515 47.6284 0.554074 47.6284 2.31757H49.3794ZM49.3794 16.9438V2.31757H47.6284V16.9438H49.3794ZM50.8215 18.3858C50.0251 18.3858 49.3794 17.7402 49.3794 16.9438H47.6284C47.6284 18.7073 49.058 20.1369 50.8215 20.1369V18.3858ZM65.998 18.3858H50.8215V20.1369H65.998V18.3858ZM67.4401 16.9438C67.4401 17.7402 66.7944 18.3858 65.998 18.3858V20.1369C67.7615 20.1369 69.1911 18.7073 69.1911 16.9438H67.4401ZM67.4401 2.31757V16.9438H69.1911V2.31757H67.4401ZM65.998 0.875515C66.7944 0.875515 67.4401 1.52115 67.4401 2.31757H69.1911C69.1911 0.554078 67.7615 -0.875515 65.998 -0.875515V0.875515ZM50.8215 0.875515H65.998V-0.875515H50.8215V0.875515ZM61.8019 13.1245H60.7246V14.8755H61.8019V13.1245ZM63.4634 4.39878L60.9561 13.7738L62.6477 14.2262L65.155 4.85117L63.4634 4.39878ZM63.155 5.50049H64.3092V3.74946H63.155V5.50049ZM62.5284 10.6192L64.0033 4.84153L62.3066 4.40842L60.8318 10.1861L62.5284 10.6192ZM62.0862 12.7374C62.1611 12.1776 62.3061 11.475 62.5275 10.6228L60.8327 10.1825C60.601 11.0744 60.4382 11.851 60.3506 12.5052L62.0862 12.7374ZM59.8627 10.636C60.0542 11.2546 60.2192 11.964 60.3552 12.7674L62.0816 12.4752C61.9354 11.6114 61.7541 10.8245 61.5353 10.118L59.8627 10.636ZM58.0985 4.8816L59.8619 10.6336L61.536 10.1203L59.7726 4.36835L58.0985 4.8816ZM57.7813 5.50049H58.9356V3.74946H57.7813V5.50049ZM56.9411 10.5732L58.6211 4.87248L56.9415 4.37747L55.2614 10.0782L56.9411 10.5732ZM56.4544 12.7491C56.5636 12.0089 56.7252 11.2858 56.9392 10.5794L55.2633 10.0719C55.0241 10.8617 54.8438 11.6691 54.7221 12.4935L56.4544 12.7491ZM54.2905 10.6299C54.49 11.4195 54.6328 12.1239 54.7215 12.7451L56.455 12.4975C56.3556 11.802 56.1991 11.0358 55.9882 10.201L54.2905 10.6299ZM52.8099 4.84196L54.2912 10.6324L55.9876 10.1985L54.5063 4.40799L52.8099 4.84196ZM52.5039 5.50049H53.6581V3.74946H52.5039V5.50049ZM55.8444 13.7749L53.3499 4.39986L51.6578 4.85009L54.1522 14.2251L55.8444 13.7749ZM56.0756 13.1245H54.9983V14.8755H56.0756V13.1245ZM57.0696 7.51377L55.2356 13.7531L56.9156 14.2469L58.7495 8.00757L57.0696 7.51377ZM57.4948 5.76353C57.4083 6.2826 57.2687 6.86236 57.0723 7.50469L58.7468 8.01665C58.9608 7.31664 59.1205 6.66093 59.222 6.0514L57.4948 5.76353ZM59.3784 6.44816C59.3239 6.24064 59.2845 6.08198 59.2587 5.96864C59.2458 5.91176 59.2377 5.8719 59.233 5.84616C59.2267 5.81153 59.231 5.8257 59.2329 5.86375L57.484 5.95118C57.4906 6.08279 57.5253 6.24238 57.5511 6.35609C57.5831 6.4971 57.6281 6.67724 57.6848 6.89294L59.3784 6.44816ZM59.6661 7.45304C59.5831 7.19618 59.4872 6.86257 59.3784 6.44816L57.6848 6.89294C57.7982 7.32498 57.9033 7.69247 57.9998 7.99135L59.6661 7.45304ZM61.5629 13.7474L59.6712 7.4696L57.9947 7.97479L59.8864 14.2526L61.5629 13.7474Z" fill="white" mask="url(#path-1-inside-1)"/>
<mask id="path-3-inside-2" fill="white">
<path fill-rule="evenodd" clip-rule="evenodd" d="M59.8254 21.0117C58.5454 21.0117 57.5078 22.0493 57.5078 23.3293V37.9555C57.5078 39.2354 58.5454 40.2731 59.8254 40.2731H75.0019C76.2819 40.2731 77.3195 39.2354 77.3195 37.9555V23.3293C77.3195 22.0493 76.2819 21.0117 75.0019 21.0117H59.8254ZM69.4932 35.3244C70.0917 34.8627 70.391 34.2193 70.391 33.3942C70.391 32.753 70.205 32.2314 69.8331 31.8296C69.4654 31.4277 68.79 31.0515 67.8068 30.701C67.2211 30.4915 66.785 30.3013 66.4986 30.1303C66.2165 29.955 66.0155 29.7648 65.8958 29.5596C65.7761 29.3501 65.7163 29.0829 65.7163 28.758C65.7163 28.3177 65.8787 27.9736 66.2036 27.7256C66.5285 27.4777 66.9795 27.3537 67.5567 27.3537C68.2877 27.3537 69.0401 27.5161 69.8139 27.841L70.1537 26.892C69.3714 26.55 68.5143 26.379 67.5823 26.379C66.6888 26.379 65.9707 26.5927 65.4277 27.0202C64.8848 27.4477 64.6133 28.0227 64.6133 28.7452C64.6133 29.4335 64.7993 29.9913 65.1712 30.4188C65.5474 30.8463 66.1716 31.2161 67.0437 31.5282C67.6678 31.7505 68.1317 31.9493 68.4352 32.1246C68.743 32.2998 68.961 32.4922 69.0892 32.7017C69.2218 32.9069 69.288 33.1719 69.288 33.4968C69.288 33.9884 69.1042 34.3732 68.7366 34.6511C68.3689 34.9247 67.8217 35.0615 67.095 35.0615C66.6504 35.0615 66.2015 35.0144 65.7484 34.9204C65.2952 34.8263 64.8763 34.6981 64.4915 34.5356V35.5873C65.09 35.8737 65.945 36.0169 67.0565 36.0169C68.0825 36.0169 68.8947 35.7861 69.4932 35.3244Z"/>
</mask>
<path fill-rule="evenodd" clip-rule="evenodd" d="M59.8254 21.0117C58.5454 21.0117 57.5078 22.0493 57.5078 23.3293V37.9555C57.5078 39.2354 58.5454 40.2731 59.8254 40.2731H75.0019C76.2819 40.2731 77.3195 39.2354 77.3195 37.9555V23.3293C77.3195 22.0493 76.2819 21.0117 75.0019 21.0117H59.8254ZM69.4932 35.3244C70.0917 34.8627 70.391 34.2193 70.391 33.3942C70.391 32.753 70.205 32.2314 69.8331 31.8296C69.4654 31.4277 68.79 31.0515 67.8068 30.701C67.2211 30.4915 66.785 30.3013 66.4986 30.1303C66.2165 29.955 66.0155 29.7648 65.8958 29.5596C65.7761 29.3501 65.7163 29.0829 65.7163 28.758C65.7163 28.3177 65.8787 27.9736 66.2036 27.7256C66.5285 27.4777 66.9795 27.3537 67.5567 27.3537C68.2877 27.3537 69.0401 27.5161 69.8139 27.841L70.1537 26.892C69.3714 26.55 68.5143 26.379 67.5823 26.379C66.6888 26.379 65.9707 26.5927 65.4277 27.0202C64.8848 27.4477 64.6133 28.0227 64.6133 28.7452C64.6133 29.4335 64.7993 29.9913 65.1712 30.4188C65.5474 30.8463 66.1716 31.2161 67.0437 31.5282C67.6678 31.7505 68.1317 31.9493 68.4352 32.1246C68.743 32.2998 68.961 32.4922 69.0892 32.7017C69.2218 32.9069 69.288 33.1719 69.288 33.4968C69.288 33.9884 69.1042 34.3732 68.7366 34.6511C68.3689 34.9247 67.8217 35.0615 67.095 35.0615C66.6504 35.0615 66.2015 35.0144 65.7484 34.9204C65.2952 34.8263 64.8763 34.6981 64.4915 34.5356V35.5873C65.09 35.8737 65.945 36.0169 67.0565 36.0169C68.0825 36.0169 68.8947 35.7861 69.4932 35.3244Z" fill="white"/>
<path d="M69.4932 35.3244L68.9585 34.6312H68.9585L69.4932 35.3244ZM69.8331 31.8296L69.1871 32.4206L69.1905 32.4243L69.8331 31.8296ZM67.8068 30.701L67.5119 31.5254L67.5127 31.5257L67.8068 30.701ZM66.4986 30.1303L66.0366 30.874L66.0432 30.8781L66.0498 30.882L66.4986 30.1303ZM65.8958 29.5596L65.1357 29.994L65.1396 30.0007L65.8958 29.5596ZM66.2036 27.7256L65.6725 27.0296L65.6725 27.0296L66.2036 27.7256ZM69.8139 27.841L69.4749 28.6483L70.3267 29.0059L70.6381 28.1362L69.8139 27.841ZM70.1537 26.892L70.978 27.1872L71.2537 26.4173L70.5044 26.0898L70.1537 26.892ZM65.4277 27.0202L65.9694 27.7081L65.9694 27.7081L65.4277 27.0202ZM65.1712 30.4188L64.5107 30.9935L64.514 30.9972L65.1712 30.4188ZM67.0437 31.5282L66.7487 32.3525L66.7499 32.353L67.0437 31.5282ZM68.4352 32.1246L67.9973 32.8827L68.0019 32.8854L68.4352 32.1246ZM69.0892 32.7017L68.3426 33.1588L68.3481 33.1678L68.3538 33.1767L69.0892 32.7017ZM68.7366 34.6511L69.2593 35.3535L69.2645 35.3495L68.7366 34.6511ZM65.7484 34.9204L65.5704 35.7776L65.7484 34.9204ZM64.4915 34.5356L64.8321 33.7291L63.616 33.2156V34.5356H64.4915ZM64.4915 35.5873H63.616V36.1389L64.1136 36.377L64.4915 35.5873ZM58.3833 23.3293C58.3833 22.5329 59.029 21.8872 59.8254 21.8872V20.1362C58.0619 20.1362 56.6323 21.5658 56.6323 23.3293H58.3833ZM58.3833 37.9555V23.3293H56.6323V37.9555H58.3833ZM59.8254 39.3975C59.029 39.3975 58.3833 38.7519 58.3833 37.9555H56.6323C56.6323 39.719 58.0619 41.1486 59.8254 41.1486V39.3975ZM75.0019 39.3975H59.8254V41.1486H75.0019V39.3975ZM76.444 37.9555C76.444 38.7519 75.7983 39.3975 75.0019 39.3975V41.1486C76.7654 41.1486 78.195 39.719 78.195 37.9555H76.444ZM76.444 23.3293V37.9555H78.195V23.3293H76.444ZM75.0019 21.8872C75.7983 21.8872 76.444 22.5329 76.444 23.3293H78.195C78.195 21.5658 76.7654 20.1362 75.0019 20.1362V21.8872ZM59.8254 21.8872H75.0019V20.1362H59.8254V21.8872ZM69.5155 33.3942C69.5155 33.9765 69.3204 34.3519 68.9585 34.6312L70.028 36.0176C70.8631 35.3734 71.2665 34.4621 71.2665 33.3942H69.5155ZM69.1905 32.4243C69.3875 32.637 69.5155 32.9333 69.5155 33.3942H71.2665C71.2665 32.5727 71.0226 31.8258 70.4756 31.2349L69.1905 32.4243ZM67.5127 31.5257C68.4635 31.8646 68.9693 32.1825 69.1871 32.4206L70.4791 31.2386C69.9616 30.673 69.1165 30.2385 68.1008 29.8763L67.5127 31.5257ZM66.0498 30.882C66.4103 31.0972 66.9101 31.3101 67.5119 31.5254L68.1016 29.8766C67.532 29.6729 67.1598 29.5053 66.9474 29.3785L66.0498 30.882ZM65.1396 30.0007C65.3541 30.3685 65.6788 30.6517 66.0366 30.874L66.9606 29.3866C66.7542 29.2583 66.6769 29.161 66.6521 29.1184L65.1396 30.0007ZM64.8408 28.758C64.8408 29.1844 64.9186 29.6141 65.1357 29.9939L66.656 29.1252C66.6337 29.0861 66.5918 28.9814 66.5918 28.758H64.8408ZM65.6725 27.0296C65.1118 27.4575 64.8408 28.0691 64.8408 28.758H66.5918C66.5918 28.5662 66.6456 28.4896 66.7348 28.4216L65.6725 27.0296ZM67.5567 26.4782C66.8647 26.4782 66.2016 26.6258 65.6725 27.0296L66.7348 28.4216C66.8555 28.3295 67.0944 28.2292 67.5567 28.2292V26.4782ZM70.1528 27.0338C69.2875 26.6704 68.42 26.4782 67.5567 26.4782V28.2292C68.1553 28.2292 68.7927 28.3618 69.4749 28.6483L70.1528 27.0338ZM69.3295 26.5968L68.9896 27.5459L70.6381 28.1362L70.978 27.1872L69.3295 26.5968ZM67.5823 27.2545C68.4047 27.2545 69.1411 27.4048 69.803 27.6942L70.5044 26.0898C69.6017 25.6952 68.6238 25.5035 67.5823 25.5035V27.2545ZM65.9694 27.7081C66.3177 27.4338 66.8272 27.2545 67.5823 27.2545V25.5035C66.5505 25.5035 65.6236 25.7517 64.8861 26.3324L65.9694 27.7081ZM65.4889 28.7452C65.4889 28.2769 65.6482 27.961 65.9694 27.7081L64.8861 26.3324C64.1215 26.9344 63.7378 27.7685 63.7378 28.7452H65.4889ZM65.8318 29.8442C65.6267 29.6085 65.4889 29.2696 65.4889 28.7452H63.7378C63.7378 29.5973 63.9719 30.3742 64.5107 30.9935L65.8318 29.8442ZM67.3387 30.7039C66.5281 30.4138 66.0636 30.1076 65.8285 29.8404L64.514 30.9972C65.0313 31.5851 65.8151 32.0184 66.7487 32.3525L67.3387 30.7039ZM68.873 31.3664C68.4995 31.1507 67.9758 30.9308 67.3374 30.7034L66.7499 32.353C67.3598 32.5702 67.7638 32.7479 67.9974 32.8827L68.873 31.3664ZM69.8359 32.2445C69.6039 31.8655 69.2515 31.5819 68.8684 31.3637L68.0019 32.8854C68.2345 33.0178 68.3181 33.1189 68.3426 33.1588L69.8359 32.2445ZM70.1636 33.4968C70.1636 33.0578 70.0743 32.6131 69.8247 32.2267L68.3538 33.1767C68.3693 33.2007 68.4125 33.2861 68.4125 33.4968H70.1636ZM69.2645 35.3495C69.8675 34.8937 70.1636 34.2416 70.1636 33.4968H68.4125C68.4125 33.7353 68.3409 33.8526 68.2087 33.9526L69.2645 35.3495ZM67.095 35.937C67.9076 35.937 68.6751 35.7882 69.2593 35.3534L68.2139 33.9487C68.0628 34.0611 67.7358 34.1859 67.095 34.1859V35.937ZM65.5704 35.7776C66.0797 35.8833 66.5882 35.937 67.095 35.937V34.1859C66.7125 34.1859 66.3233 34.1455 65.9263 34.0631L65.5704 35.7776ZM64.151 35.3422C64.5934 35.529 65.0675 35.6732 65.5704 35.7776L65.9263 34.0631C65.5229 33.9794 65.1591 33.8672 64.8321 33.7291L64.151 35.3422ZM65.367 35.5873V34.5356H63.616V35.5873H65.367ZM67.0565 35.1414C65.9987 35.1414 65.296 35.0017 64.8695 34.7975L64.1136 36.377C64.884 36.7457 65.8913 36.8924 67.0565 36.8924V35.1414ZM68.9585 34.6312C68.5598 34.9387 67.9575 35.1414 67.0565 35.1414V36.8924C68.2075 36.8924 69.2297 36.6334 70.028 36.0176L68.9585 34.6312Z" fill="white" mask="url(#path-3-inside-2)"/>
<mask id="path-5-inside-3" fill="white">
<path fill-rule="evenodd" clip-rule="evenodd" d="M81.4387 21.0117C80.1587 21.0117 79.1211 22.0493 79.1211 23.3293V37.9555C79.1211 39.2354 80.1587 40.2731 81.4387 40.2731H96.6152C97.8951 40.2731 98.9328 39.2354 98.9328 37.9555V23.3293C98.9328 22.0493 97.8951 21.0117 96.6152 21.0117H81.4387ZM91.7458 34.6639C92.588 33.8431 93.0091 32.6589 93.0091 31.1114C93.0091 29.6622 92.6051 28.5336 91.7971 27.7256C90.9891 26.9176 89.8563 26.5136 88.3985 26.5136H85.5257V35.8887H88.1228C89.7002 35.8887 90.9079 35.4804 91.7458 34.6639ZM90.9314 28.3861C91.547 29.006 91.8548 29.9272 91.8548 31.1499C91.8548 32.4024 91.5278 33.3493 90.8737 33.9906C90.2196 34.6276 89.2428 34.946 87.9432 34.946H86.6158V27.4563H88.1997C89.4095 27.4563 90.3201 27.7662 90.9314 28.3861Z"/>
</mask>
<path fill-rule="evenodd" clip-rule="evenodd" d="M81.4387 21.0117C80.1587 21.0117 79.1211 22.0493 79.1211 23.3293V37.9555C79.1211 39.2354 80.1587 40.2731 81.4387 40.2731H96.6152C97.8951 40.2731 98.9328 39.2354 98.9328 37.9555V23.3293C98.9328 22.0493 97.8951 21.0117 96.6152 21.0117H81.4387ZM91.7458 34.6639C92.588 33.8431 93.0091 32.6589 93.0091 31.1114C93.0091 29.6622 92.6051 28.5336 91.7971 27.7256C90.9891 26.9176 89.8563 26.5136 88.3985 26.5136H85.5257V35.8887H88.1228C89.7002 35.8887 90.9079 35.4804 91.7458 34.6639ZM90.9314 28.3861C91.547 29.006 91.8548 29.9272 91.8548 31.1499C91.8548 32.4024 91.5278 33.3493 90.8737 33.9906C90.2196 34.6276 89.2428 34.946 87.9432 34.946H86.6158V27.4563H88.1997C89.4095 27.4563 90.3201 27.7662 90.9314 28.3861Z" fill="white"/>
<path d="M91.7458 34.6639L92.3568 35.2909L92.3569 35.2909L91.7458 34.6639ZM91.7971 27.7256L91.178 28.3447L91.178 28.3447L91.7971 27.7256ZM85.5257 26.5136V25.6381H84.6502V26.5136H85.5257ZM85.5257 35.8887H84.6502V36.7642H85.5257V35.8887ZM90.9314 28.3861L90.3081 29.0009L90.3102 29.003L90.9314 28.3861ZM90.8737 33.9906L91.4845 34.6178L91.4866 34.6158L90.8737 33.9906ZM86.6158 34.946H85.7403V35.8216H86.6158V34.946ZM86.6158 27.4563V26.5808H85.7403V27.4563H86.6158ZM79.9966 23.3293C79.9966 22.5329 80.6422 21.8872 81.4387 21.8872V20.1362C79.6752 20.1362 78.2456 21.5658 78.2456 23.3293H79.9966ZM79.9966 37.9555V23.3293H78.2456V37.9555H79.9966ZM81.4387 39.3975C80.6422 39.3975 79.9966 38.7519 79.9966 37.9555H78.2456C78.2456 39.719 79.6752 41.1486 81.4387 41.1486V39.3975ZM96.6152 39.3975H81.4387V41.1486H96.6152V39.3975ZM98.0572 37.9555C98.0572 38.7519 97.4116 39.3975 96.6152 39.3975V41.1486C98.3787 41.1486 99.8083 39.719 99.8083 37.9555H98.0572ZM98.0572 23.3293V37.9555H99.8083V23.3293H98.0572ZM96.6152 21.8872C97.4116 21.8872 98.0572 22.5329 98.0572 23.3293H99.8083C99.8083 21.5658 98.3787 20.1362 96.6152 20.1362V21.8872ZM81.4387 21.8872H96.6152V20.1362H81.4387V21.8872ZM92.1335 31.1114C92.1335 32.5006 91.7593 33.4282 91.1347 34.0369L92.3569 35.2909C93.4167 34.258 93.8846 32.8173 93.8846 31.1114H92.1335ZM91.178 28.3447C91.7807 28.9473 92.1335 29.8289 92.1335 31.1114H93.8846C93.8846 29.4955 93.4295 28.1198 92.4162 27.1065L91.178 28.3447ZM88.3985 27.3892C89.6912 27.3892 90.5763 27.743 91.178 28.3447L92.4162 27.1065C91.402 26.0923 90.0213 25.6381 88.3985 25.6381V27.3892ZM85.5257 27.3892H88.3985V25.6381H85.5257V27.3892ZM86.4012 35.8887V26.5136H84.6502V35.8887H86.4012ZM88.1228 35.0132H85.5257V36.7642H88.1228V35.0132ZM91.1348 34.0369C90.5107 34.645 89.5534 35.0132 88.1228 35.0132V36.7642C89.847 36.7642 91.3051 36.3158 92.3568 35.2909L91.1348 34.0369ZM92.7303 31.1499C92.7303 29.7897 92.387 28.6093 91.5526 27.7692L90.3102 29.003C90.7071 29.4026 90.9793 30.0647 90.9793 31.1499H92.7303ZM91.4866 34.6158C92.3629 33.7567 92.7303 32.5489 92.7303 31.1499H90.9793C90.9793 32.256 90.6926 32.942 90.2608 33.3654L91.4866 34.6158ZM87.9432 35.8216C89.3739 35.8216 90.6086 35.4708 91.4845 34.6178L90.2629 33.3634C89.8307 33.7843 89.1117 34.0705 87.9432 34.0705V35.8216ZM86.6158 35.8216H87.9432V34.0705H86.6158V35.8216ZM85.7403 27.4563V34.946H87.4914V27.4563H85.7403ZM88.1997 26.5808H86.6158V28.3318H88.1997V26.5808ZM91.5548 27.7713C90.7234 26.9283 89.5507 26.5808 88.1997 26.5808V28.3318C89.2683 28.3318 89.9168 28.6041 90.3081 29.0009L91.5548 27.7713Z" fill="white" mask="url(#path-5-inside-3)"/>
<rect x="101.998" y="21.4495" width="18.9361" height="18.3858" rx="1.87981" stroke="white" stroke-opacity="0.48" stroke-width="0.875515"/>
<rect x="70.4788" y="0.437758" width="18.9361" height="18.3858" rx="1.87981" stroke="white" stroke-opacity="0.48" stroke-width="0.875515"/>
<rect x="1.31276" y="0.437758" width="22.7634" height="18.3858" rx="1.87981" stroke="white" stroke-opacity="0.48" stroke-width="0.875515"/>
<rect x="0.437758" y="21.4495" width="33.2696" height="18.3858" rx="1.87981" stroke="white" stroke-opacity="0.48" stroke-width="0.875515"/>
<rect x="92.9182" y="0.437758" width="18.9361" height="18.3858" rx="1.87981" stroke="white" stroke-opacity="0.48" stroke-width="0.875515"/>
<rect x="27.2542" y="0.437758" width="18.9361" height="18.3858" rx="1.87981" stroke="white" stroke-opacity="0.48" stroke-width="0.875515"/>
<mask id="path-13-inside-4" fill="white">
<path fill-rule="evenodd" clip-rule="evenodd" d="M38.2141 21.0117C36.9341 21.0117 35.8965 22.0493 35.8965 23.3293V37.9555C35.8965 39.2354 36.9341 40.2731 38.2141 40.2731H53.3906C54.6705 40.2731 55.7081 39.2354 55.7081 37.9555V23.3293C55.7081 22.0493 54.6705 21.0117 53.3906 21.0117H38.2141ZM47.6619 32.9069L48.829 35.8887H49.9576L46.2704 26.4752H45.3534L41.647 35.8887H42.75L43.9042 32.9069H47.6619ZM46.2319 29.0209L47.3221 31.9258H44.289L45.3919 29.0209C45.5672 28.5293 45.7019 28.0783 45.7959 27.6679C45.9455 28.2023 46.0909 28.6533 46.2319 29.0209Z"/>
</mask>
<path fill-rule="evenodd" clip-rule="evenodd" d="M38.2141 21.0117C36.9341 21.0117 35.8965 22.0493 35.8965 23.3293V37.9555C35.8965 39.2354 36.9341 40.2731 38.2141 40.2731H53.3906C54.6705 40.2731 55.7081 39.2354 55.7081 37.9555V23.3293C55.7081 22.0493 54.6705 21.0117 53.3906 21.0117H38.2141ZM47.6619 32.9069L48.829 35.8887H49.9576L46.2704 26.4752H45.3534L41.647 35.8887H42.75L43.9042 32.9069H47.6619ZM46.2319 29.0209L47.3221 31.9258H44.289L45.3919 29.0209C45.5672 28.5293 45.7019 28.0783 45.7959 27.6679C45.9455 28.2023 46.0909 28.6533 46.2319 29.0209Z" fill="white"/>
<path d="M48.829 35.8887L48.0137 36.2078L48.2315 36.7642H48.829V35.8887ZM47.6619 32.9069L48.4772 32.5878L48.2594 32.0314H47.6619V32.9069ZM49.9576 35.8887V36.7642H51.2408L50.7728 35.5694L49.9576 35.8887ZM46.2704 26.4752L47.0856 26.1559L46.8678 25.5997H46.2704V26.4752ZM45.3534 26.4752V25.5997H44.7572L44.5388 26.1544L45.3534 26.4752ZM41.647 35.8887L40.8324 35.5679L40.3614 36.7642H41.647V35.8887ZM42.75 35.8887V36.7642H43.3499L43.5665 36.2047L42.75 35.8887ZM43.9042 32.9069V32.0314H43.3043L43.0877 32.5908L43.9042 32.9069ZM47.3221 31.9258V32.8013H48.5858L48.1418 31.6182L47.3221 31.9258ZM46.2319 29.0209L47.0517 28.7133L47.0494 28.7073L46.2319 29.0209ZM44.289 31.9258L43.4705 31.615L43.02 32.8013H44.289V31.9258ZM45.3919 29.0209L46.2104 29.3317L46.2136 29.3233L46.2166 29.3149L45.3919 29.0209ZM45.7959 27.6679L46.639 27.4318L44.9425 27.4723L45.7959 27.6679ZM36.772 23.3293C36.772 22.5329 37.4176 21.8872 38.2141 21.8872V20.1362C36.4506 20.1362 35.021 21.5658 35.021 23.3293H36.772ZM36.772 37.9555V23.3293H35.021V37.9555H36.772ZM38.2141 39.3975C37.4176 39.3975 36.772 38.7519 36.772 37.9555H35.021C35.021 39.719 36.4506 41.1486 38.2141 41.1486V39.3975ZM53.3906 39.3975H38.2141V41.1486H53.3906V39.3975ZM54.8326 37.9555C54.8326 38.7519 54.187 39.3975 53.3906 39.3975V41.1486C55.1541 41.1486 56.5837 39.719 56.5837 37.9555H54.8326ZM54.8326 23.3293V37.9555H56.5837V23.3293H54.8326ZM53.3906 21.8872C54.187 21.8872 54.8326 22.5329 54.8326 23.3293H56.5837C56.5837 21.5658 55.1541 20.1362 53.3906 20.1362V21.8872ZM38.2141 21.8872H53.3906V20.1362H38.2141V21.8872ZM49.6443 35.5696L48.4772 32.5878L46.8466 33.226L48.0137 36.2078L49.6443 35.5696ZM49.9576 35.0132H48.829V36.7642H49.9576V35.0132ZM45.4552 26.7945L49.1424 36.208L50.7728 35.5694L47.0856 26.1559L45.4552 26.7945ZM45.3534 27.3507H46.2704V25.5997H45.3534V27.3507ZM42.4617 36.2094L46.1681 26.7959L44.5388 26.1544L40.8324 35.5679L42.4617 36.2094ZM42.75 35.0132H41.647V36.7642H42.75V35.0132ZM43.0877 32.5908L41.9335 35.5726L43.5665 36.2047L44.7207 33.2229L43.0877 32.5908ZM47.6619 32.0314H43.9042V33.7824H47.6619V32.0314ZM48.1418 31.6182L47.0516 28.7133L45.4123 29.3285L46.5024 32.2334L48.1418 31.6182ZM44.289 32.8013H47.3221V31.0503H44.289V32.8013ZM44.5734 28.7101L43.4705 31.615L45.1075 32.2365L46.2104 29.3317L44.5734 28.7101ZM44.9425 27.4723C44.8577 27.8426 44.7336 28.2602 44.5672 28.7269L46.2166 29.3149C46.4008 28.7984 46.5461 28.314 46.6493 27.8635L44.9425 27.4723ZM47.0494 28.7073C46.9211 28.373 46.784 27.9496 46.639 27.4318L44.9528 27.904C45.1071 28.4549 45.2607 28.9336 45.4145 29.3346L47.0494 28.7073Z" fill="white" mask="url(#path-13-inside-4)"/>
</svg>
