<svg width="177" height="83" viewBox="0 0 177 83" fill="none" xmlns="http://www.w3.org/2000/svg">
<g filter="url(#filter0_d)">
<rect x="14" y="10" width="149" height="55" rx="27.5" fill="#EA7E33"/>
</g>
<path d="M55.6875 45V30.7227H58.7148V42.5H64.5059V45H55.6875ZM69.1348 39.5215C69.1348 40.6022 69.3105 41.4193 69.6621 41.9727C70.0202 42.526 70.5996 42.8027 71.4004 42.8027C72.1947 42.8027 72.7643 42.5293 73.1094 41.9824C73.4609 41.429 73.6367 40.6087 73.6367 39.5215C73.6367 38.4408 73.4609 37.6302 73.1094 37.0898C72.7578 36.5495 72.1816 36.2793 71.3809 36.2793C70.5866 36.2793 70.0137 36.5495 69.6621 37.0898C69.3105 37.6237 69.1348 38.4342 69.1348 39.5215ZM76.6836 39.5215C76.6836 41.2988 76.2148 42.6888 75.2773 43.6914C74.3398 44.694 73.0345 45.1953 71.3613 45.1953C70.3132 45.1953 69.3887 44.9674 68.5879 44.5117C67.7871 44.0495 67.1719 43.3887 66.7422 42.5293C66.3125 41.6699 66.0977 40.6673 66.0977 39.5215C66.0977 37.7376 66.5632 36.3509 67.4941 35.3613C68.4251 34.3717 69.7337 33.877 71.4199 33.877C72.4681 33.877 73.3926 34.1048 74.1934 34.5605C74.9941 35.0163 75.6094 35.6706 76.0391 36.5234C76.4688 37.3763 76.6836 38.3757 76.6836 39.5215ZM88.6465 34.082V35.5957L86.9375 36.0352C87.25 36.5234 87.4062 37.0703 87.4062 37.6758C87.4062 38.8477 86.9961 39.7624 86.1758 40.4199C85.362 41.071 84.2292 41.3965 82.7773 41.3965L82.2402 41.3672L81.8008 41.3184C81.4948 41.5527 81.3418 41.8132 81.3418 42.0996C81.3418 42.5293 81.8887 42.7441 82.9824 42.7441H84.8379C86.0358 42.7441 86.9473 43.0013 87.5723 43.5156C88.2038 44.0299 88.5195 44.7852 88.5195 45.7812C88.5195 47.0573 87.9857 48.0469 86.918 48.75C85.8568 49.4531 84.3301 49.8047 82.3379 49.8047C80.8145 49.8047 79.6491 49.5378 78.8418 49.0039C78.041 48.4766 77.6406 47.7344 77.6406 46.7773C77.6406 46.1198 77.8457 45.5697 78.2559 45.127C78.666 44.6842 79.2682 44.3685 80.0625 44.1797C79.7565 44.0495 79.4896 43.8379 79.2617 43.5449C79.0339 43.2454 78.9199 42.9297 78.9199 42.5977C78.9199 42.181 79.0404 41.8359 79.2812 41.5625C79.5221 41.2826 79.8704 41.0091 80.3262 40.7422C79.7533 40.4948 79.2975 40.0977 78.959 39.5508C78.627 39.0039 78.4609 38.3594 78.4609 37.6172C78.4609 36.4258 78.8483 35.5046 79.623 34.8535C80.3978 34.2025 81.5046 33.877 82.9434 33.877C83.2493 33.877 83.6107 33.9062 84.0273 33.9648C84.4505 34.0169 84.7207 34.056 84.8379 34.082H88.6465ZM80.2188 46.543C80.2188 46.9531 80.4141 47.2754 80.8047 47.5098C81.2018 47.7441 81.7552 47.8613 82.4648 47.8613C83.5326 47.8613 84.3691 47.7148 84.9746 47.4219C85.5801 47.1289 85.8828 46.7285 85.8828 46.2207C85.8828 45.8105 85.7038 45.5273 85.3457 45.3711C84.9876 45.2148 84.4342 45.1367 83.6855 45.1367H82.1426C81.5957 45.1367 81.1367 45.2637 80.7656 45.5176C80.401 45.778 80.2188 46.1198 80.2188 46.543ZM81.3027 37.6562C81.3027 38.2487 81.4362 38.7174 81.7031 39.0625C81.9766 39.4076 82.39 39.5801 82.9434 39.5801C83.5033 39.5801 83.9134 39.4076 84.1738 39.0625C84.4342 38.7174 84.5645 38.2487 84.5645 37.6562C84.5645 36.3411 84.0241 35.6836 82.9434 35.6836C81.8496 35.6836 81.3027 36.3411 81.3027 37.6562ZM92.8262 39.5215C92.8262 40.6022 93.002 41.4193 93.3535 41.9727C93.7116 42.526 94.291 42.8027 95.0918 42.8027C95.8861 42.8027 96.4557 42.5293 96.8008 41.9824C97.1523 41.429 97.3281 40.6087 97.3281 39.5215C97.3281 38.4408 97.1523 37.6302 96.8008 37.0898C96.4492 36.5495 95.873 36.2793 95.0723 36.2793C94.278 36.2793 93.7051 36.5495 93.3535 37.0898C93.002 37.6237 92.8262 38.4342 92.8262 39.5215ZM100.375 39.5215C100.375 41.2988 99.9062 42.6888 98.9688 43.6914C98.0312 44.694 96.7259 45.1953 95.0527 45.1953C94.0046 45.1953 93.0801 44.9674 92.2793 44.5117C91.4785 44.0495 90.8633 43.3887 90.4336 42.5293C90.0039 41.6699 89.7891 40.6673 89.7891 39.5215C89.7891 37.7376 90.2546 36.3509 91.1855 35.3613C92.1165 34.3717 93.4251 33.877 95.1113 33.877C96.1595 33.877 97.084 34.1048 97.8848 34.5605C98.6855 35.0163 99.3008 35.6706 99.7305 36.5234C100.16 37.3763 100.375 38.3757 100.375 39.5215ZM110.57 45L110.17 43.6035H110.014C109.695 44.1113 109.242 44.5052 108.656 44.7852C108.07 45.0586 107.403 45.1953 106.654 45.1953C105.372 45.1953 104.405 44.8535 103.754 44.1699C103.103 43.4798 102.777 42.4902 102.777 41.2012V34.082H105.756V40.459C105.756 41.2467 105.896 41.8392 106.176 42.2363C106.456 42.627 106.902 42.8223 107.514 42.8223C108.347 42.8223 108.949 42.5456 109.32 41.9922C109.691 41.4323 109.877 40.5078 109.877 39.2188V34.082H112.855V45H110.57ZM120.58 42.8223C121.101 42.8223 121.726 42.7083 122.455 42.4805V44.6973C121.713 45.0293 120.801 45.1953 119.721 45.1953C118.529 45.1953 117.66 44.8958 117.113 44.2969C116.573 43.6914 116.303 42.7865 116.303 41.582V36.3184H114.877V35.0586L116.518 34.0625L117.377 31.7578H119.281V34.082H122.338V36.3184H119.281V41.582C119.281 42.0052 119.398 42.3177 119.633 42.5195C119.874 42.7214 120.189 42.8223 120.58 42.8223Z" fill="white"/>
<defs>
<filter id="filter0_d" x="0" y="0" width="177" height="83" filterUnits="userSpaceOnUse" color-interpolation-filters="sRGB">
<feFlood flood-opacity="0" result="BackgroundImageFix"/>
<feColorMatrix in="SourceAlpha" type="matrix" values="0 0 0 0 0 0 0 0 0 0 0 0 0 0 0 0 0 0 127 0" result="hardAlpha"/>
<feOffset dy="4"/>
<feGaussianBlur stdDeviation="7"/>
<feColorMatrix type="matrix" values="0 0 0 0 0 0 0 0 0 0 0 0 0 0 0 0 0 0 0.25 0"/>
<feBlend mode="normal" in2="BackgroundImageFix" result="effect1_dropShadow"/>
<feBlend mode="normal" in="SourceGraphic" in2="effect1_dropShadow" result="shape"/>
</filter>
</defs>
</svg>
